<svg xmlns="http://www.w3.org/2000/svg" width="30.714" height="31.799" viewBox="0 0 30.714 31.799"><defs><style>.a{fill:#31363d;}</style></defs><path class="a" d="M33.094,16.854a3.557,3.557,0,0,0-5,.489,3.481,3.481,0,0,0-.494.833L22.19,17.3a3.541,3.541,0,0,0-4.506-3.083L15.33,8.559a3.488,3.488,0,0,0,.7-.675,3.56,3.56,0,1,0-2.336,1.368l2.4,5.762a.85.85,0,0,0,.074.11,3.377,3.377,0,0,0-.253.251,3.528,3.528,0,0,0-.791,2.437.83.83,0,0,0-.178.068L9.654,21.212a3.492,3.492,0,0,0-.783-.576,3.559,3.559,0,1,0,1.74,2.073l5.056-3.187a3.426,3.426,0,0,0,2.607,1.636l.629,5.958a3.464,3.464,0,0,0-.863.449,3.558,3.558,0,1,0,2.629-.647l-.637-6.03a3.32,3.32,0,0,0,1.863-1.835l5.41.872a3.552,3.552,0,1,0,5.791-3.073Zm-20.969-9.7a1.776,1.776,0,1,1,2.489-.342,1.751,1.751,0,0,1-.729.556l-.012,0-.011.007A1.771,1.771,0,0,1,12.125,7.152ZM8.8,24.608a1.777,1.777,0,1,1-.754-2.4,1.752,1.752,0,0,1,.671.625l.005.012.008.009A1.771,1.771,0,0,1,8.8,24.608Zm8.48-8.1a1.777,1.777,0,1,1,.244,2.5A1.779,1.779,0,0,1,17.283,16.5Zm4.29,12.876A1.777,1.777,0,1,1,19.09,29a1.759,1.759,0,0,1,.857-.325h.012l.012,0A1.773,1.773,0,0,1,21.573,29.38ZM32.21,20.727a1.777,1.777,0,1,1-.244-2.5A1.779,1.779,0,0,1,32.21,20.727Z" transform="translate(-3.675 -2.184)"/></svg>