<svg xmlns="http://www.w3.org/2000/svg" width="33.744" height="22.3" viewBox="0 0 33.744 22.3"><defs><style>.a{fill:#236edf;}</style></defs><g transform="translate(-8.356 -6.4)"><path class="a" d="M30.6,25.2a12.171,12.171,0,0,0-.9-2.7V12.3h0V8.9a2.476,2.476,0,0,0-2.5-2.5H11.9A2.476,2.476,0,0,0,9.4,8.9V22.5a6.933,6.933,0,0,0-1,2.7,5.652,5.652,0,0,0,0,1.3h0c0,1.1,1.5,2.2,2.6,2.2H28.2a2.476,2.476,0,0,0,2.4-2.2A4.982,4.982,0,0,0,30.6,25.2ZM28,22.4h0a.789.789,0,0,1-.8.8H11.9a.789.789,0,0,1-.8-.8V12.3a.789.789,0,0,1,.8-.8H27.2a.789.789,0,0,1,.8.8ZM11.9,8H27.2a.817.817,0,0,1,.8.9v1a2.353,2.353,0,0,0-.8-.2H11.9a1.884,1.884,0,0,0-.8.2v-1A.882.882,0,0,1,11.9,8Zm17,18.5a1.157,1.157,0,0,1-.7.5H11a1.59,1.59,0,0,1-.9-.6V25.2a3.091,3.091,0,0,1,.2-.8,2.271,2.271,0,0,0,1.6.6H27.2a2.452,2.452,0,0,0,1.6-.6,2.353,2.353,0,0,1,.2.8A4.888,4.888,0,0,0,28.9,26.5Z"/><path class="a" d="M16.3,18.9a.789.789,0,0,1-.8-.8V14.8a.8.8,0,1,1,1.6,0v3.3C17.2,18.6,16.8,18.9,16.3,18.9Z"/><path class="a" d="M19.6,18.9a.789.789,0,0,1-.8-.8V14.8a.8.8,0,1,1,1.6,0v3.3C20.5,18.6,20.1,18.9,19.6,18.9Z"/><path class="a" d="M22.9,18.9a.789.789,0,0,1-.8-.8V14.8a.8.8,0,1,1,1.6,0v3.3A.736.736,0,0,1,22.9,18.9Z"/><path class="a" d="M24.2,21.5H15.1a.8.8,0,1,1,0-1.6h9.1a.789.789,0,0,1,.8.8C25.1,21.1,24.7,21.5,24.2,21.5Z"/></g><g transform="translate(-8.356 -6.4)"><path class="a" d="M35.8,18.4h0a.908.908,0,0,1-.7-.3l-2.4-2.4a.99.99,0,0,1,1.4-1.4L35.8,16l4.6-4.6a.99.99,0,0,1,1.4,1.4l-5.3,5.3A1.08,1.08,0,0,1,35.8,18.4Z"/></g></svg>