<svg xmlns="http://www.w3.org/2000/svg" width="13" height="24" viewBox="0 0 13 24"><defs><style>.a{fill:#31363d;}</style></defs><path class="a" d="M167.151,180.744a1,1,0,0,0,1.414,0l3.793-3.793v8.586a1,1,0,0,0,1.707.707l5.5-5.5a1,1,0,0,0,0-1.414l-4.793-4.793,4.793-4.793a1,1,0,0,0,0-1.414l-5.5-5.5a1,1,0,0,0-1.707.707v8.586l-3.793-3.793a1,1,0,0,0-1.414,1.414l4.793,4.793-4.793,4.793A1,1,0,0,0,167.151,180.744Zm7.207-14.793,3.086,3.086-3.086,3.086Zm0,11,3.086,3.086-3.086,3.086Z" transform="translate(-166.859 -162.537)"/></svg>