<svg xmlns="http://www.w3.org/2000/svg" width="22" height="22" viewBox="0 0 22 22"><defs><style>.a{fill:#31363d;}</style></defs><path class="a" d="M145.054,83.868a11,11,0,1,0-11-11A11.012,11.012,0,0,0,145.054,83.868Zm-1-19.941v2.941a1,1,0,0,0,2,0V63.927a9.012,9.012,0,0,1,7.941,7.941h-2.941a1,1,0,0,0,0,2h2.941a9.013,9.013,0,0,1-7.941,7.941V78.868a1,1,0,0,0-2,0v2.941a9.013,9.013,0,0,1-7.941-7.941h2.941a1,1,0,0,0,0-2h-2.941A9.012,9.012,0,0,1,144.054,63.927Z" transform="translate(-134.054 -61.868)"/></svg>