<svg xmlns="http://www.w3.org/2000/svg" width="24" height="24" viewBox="0 0 24 24"><defs><style>.a{fill:#31363d;}</style></defs><path class="a" d="M118.776,250.951a1,1,0,0,0,1-1v-9.34a3,3,0,0,0-3-3h-3.465l-1.7-2.555a1,1,0,0,0-.832-.445h-6a1,1,0,0,0,0,2h5.465l1.7,2.555a1,1,0,0,0,.832.445h4a1,1,0,0,1,1,1v9.34A1,1,0,0,0,118.776,250.951Z" transform="translate(-95.776 -232.611)"/><path class="a" d="M98.776,254.611h17.586l1.707,1.707a1,1,0,0,0,1.414-1.414l-2-2h0l-15-15h0l-5-5a1,1,0,0,0-1.414,1.414l3.293,3.293h-.586a3,3,0,0,0-3,3v11A3,3,0,0,0,98.776,254.611Zm6.5-10.673a2.878,2.878,0,0,1,.187-.224l4.208,4.208a2.993,2.993,0,0,1-4.395-3.984Zm-7.5-3.327a1,1,0,0,1,1-1h2.586l2.689,2.689a4.873,4.873,0,0,0,.88,7.458,5,5,0,0,0,6.166-.412l3.265,3.265H98.776a1,1,0,0,1-1-1Z" transform="translate(-95.776 -232.611)"/></svg>