<svg xmlns="http://www.w3.org/2000/svg" width="24" height="20" viewBox="0 0 24 20"><defs><style>.a{fill:#31363d;}</style></defs><path class="a" d="M150.311,235.611l-1.7-2.555a1,1,0,0,0-.832-.445h-6a1,1,0,0,0-.832.445l-1.7,2.555h-3.465a3,3,0,0,0-3,3v11a3,3,0,0,0,3,3h18a3,3,0,0,0,3-3v-11a3,3,0,0,0-3-3Zm4.465,3v11a1,1,0,0,1-1,1h-18a1,1,0,0,1-1-1v-11a1,1,0,0,1,1-1h4a1,1,0,0,0,.832-.445l1.7-2.555h4.93l1.7,2.555a1,1,0,0,0,.832.445h4A1,1,0,0,1,154.776,238.611Z" transform="translate(-132.776 -232.611)"/><path class="a" d="M144.776,238.611a5,5,0,1,0,5,5A5.006,5.006,0,0,0,144.776,238.611Zm0,8a3,3,0,1,1,3-3A3,3,0,0,1,144.776,246.611Z" transform="translate(-132.776 -232.611)"/></svg>