<svg xmlns="http://www.w3.org/2000/svg" width="16.702" height="24" viewBox="0 0 16.702 24"><defs><style>.a{fill:#31363d;}</style></defs><path class="a" d="M8.5,24H8.4C6.5,24,5.2,23,5,21.6a1.135,1.135,0,0,1,.3-.8,1.08,1.08,0,0,1,.7-.3h4.8a.893.893,0,0,1,.9,1.1C11.6,23,10.3,24,8.5,24Zm3.4-5.3H5a.908.908,0,0,1-.7-.3l-.6-.5a.908.908,0,0,1-.3-.7V15.7a4.267,4.267,0,0,0-1.1-2.1A8.756,8.756,0,0,1,.1,8C0,3.3,3.5,0,8.4,0c5,0,8.4,3.2,8.4,8.1a8.756,8.756,0,0,1-2.2,5.6,4.267,4.267,0,0,0-1.1,2.1v1.6a1.606,1.606,0,0,1-.5,1.1A4.253,4.253,0,0,1,11.9,18.7Zm-.1-2Zm-6.4,0h6.1v-1A5.9,5.9,0,0,1,13,12.4,6.82,6.82,0,0,0,14.8,8c0-3.7-2.5-6.1-6.4-6.1C4.5,2,2,4.4,2,8.1a6.82,6.82,0,0,0,1.8,4.4,5.9,5.9,0,0,1,1.5,3.3v.9Z" transform="translate(-0.098)"/></svg>