<svg xmlns="http://www.w3.org/2000/svg" width="20" height="20" viewBox="0 0 20 20"><defs><style>.a{fill:#31363d;}</style></defs><path class="a" d="M-2878.178,2928.214a1.04,1.04,0,0,1,0-1.469l8.227-8.227-8.226-8.226a1.039,1.039,0,0,1,0-1.469,1.04,1.04,0,0,1,1.469,0l8.226,8.226,8.227-8.226a1.04,1.04,0,0,1,1.469,0,1.039,1.039,0,0,1,0,1.469l-8.226,8.226,8.227,8.227a1.04,1.04,0,0,1,0,1.469,1.039,1.039,0,0,1-1.47,0l-8.227-8.227-8.227,8.227a1.034,1.034,0,0,1-.734.3A1.037,1.037,0,0,1-2878.178,2928.214Z" transform="translate(2878.482 -2908.518)"/></svg>