<svg xmlns="http://www.w3.org/2000/svg" width="13.375" height="21.341" viewBox="0 0 13.375 21.341"><defs><style>.a{fill:#91b2e4;}</style></defs><g transform="translate(-5.313 -1.33)"><path class="a" d="M13,20.08,15.5,2.47a1,1,0,0,0-1-1.14h-5a1,1,0,0,0-1,1.14L11,20.08a1,1,0,1,0,2,0Z"/><path class="a" d="M15.06,22.67h-.9a.44.44,0,0,1-.44-.52L16.9,1.7a.45.45,0,0,1,.44-.37h.91a.44.44,0,0,1,.43.52L15.5,22.3a.44.44,0,0,1-.44.37Z"/><path class="a" d="M8.53,22.3,5.32,1.85a.44.44,0,0,1,.43-.52h.91a.45.45,0,0,1,.44.37l3.21,20.45a.44.44,0,0,1-.43.52H9A.45.45,0,0,1,8.53,22.3Z"/></g></svg>