<svg xmlns="http://www.w3.org/2000/svg" width="29.3" height="21.677" viewBox="0 0 29.3 21.677"><defs><style>.a{fill:#31363d;}</style></defs><g transform="translate(-140.2 -2264.509)"><path class="a" d="M162.5,2282.4a.908.908,0,0,1-.7-.3.967.967,0,0,1,0-1.4l5.3-5.3-5.3-5.3a.99.99,0,1,1,1.4-1.4l6,6a.967.967,0,0,1,0,1.4l-6,6A1.079,1.079,0,0,1,162.5,2282.4Z"/><path class="a" d="M147.2,2282.4a.908.908,0,0,1-.7-.3l-6-6a.967.967,0,0,1,0-1.4l6-6a.99.99,0,0,1,1.4,1.4l-5.3,5.3,5.3,5.3a.967.967,0,0,1,0,1.4A.907.907,0,0,1,147.2,2282.4Z"/></g><path class="a" d="M14.2,21.6a.367.367,0,0,1-.3-.1,1.04,1.04,0,0,1-.6-1.3L20.6.5A.853.853,0,0,1,21.8,0a1.04,1.04,0,0,1,.6,1.3L15.1,21A.875.875,0,0,1,14.2,21.6Z" transform="translate(-3.2 0.077)"/></svg>