<svg xmlns="http://www.w3.org/2000/svg" width="20" height="20" viewBox="0 0 20 20"><defs><style>.a{fill:#31363d;}</style></defs><path class="a" d="M403.1,295.675v16a1,1,0,0,0,1.707.707l3.707-3.707H420.1a3,3,0,0,0,3-3v-10a3,3,0,0,0-3-3h-14A3,3,0,0,0,403.1,295.675Zm2,0a1,1,0,0,1,1-1h14a1,1,0,0,1,1,1v10a1,1,0,0,1-1,1h-12a1,1,0,0,0-.707.293l-2.293,2.293Z" transform="translate(-403.103 -292.675)"/><g transform="translate(-1007.592 -1022.849)"><path class="a" d="M13.778,6.084H4.793a1.123,1.123,0,0,1,0-2.247h8.985a1.123,1.123,0,1,1,0,2.247" transform="translate(1007.967 1024.011)"/><path class="a" d="M9.811,9.426H4.757a1.123,1.123,0,0,1,0-2.247H9.811a1.123,1.123,0,1,1,0,2.247" transform="translate(1007.958 1024.892)"/></g></svg>