<svg xmlns="http://www.w3.org/2000/svg" width="18" height="18" viewBox="0 0 18 18"><defs><style>.a{fill:#31363d;}</style></defs><path class="a" d="M320.976,517.934a10.012,10.012,0,0,0-10-10,1,1,0,1,0,0,2,8.009,8.009,0,0,1,8,8,1,1,0,0,0,2,0Z" transform="translate(-309.976 -500.934)"/><path class="a" d="M325.976,517.934a1,1,0,0,0,2,0,17.019,17.019,0,0,0-17-17,1,1,0,1,0,0,2A15.016,15.016,0,0,1,325.976,517.934Z" transform="translate(-309.976 -500.934)"/><circle class="a" cx="2" cy="2" r="2" transform="translate(0 14)"/></svg>