<svg xmlns="http://www.w3.org/2000/svg" width="23.16" height="16.988" viewBox="0 0 23.16 16.988"><defs><style>.a{fill:#31363d;}</style></defs><path class="a" d="M148.062,736.923a1,1,0,0,0,1.28,1.537,10,10,0,0,1,12.8,0,1,1,0,1,0,1.28-1.537A12,12,0,0,0,148.062,736.923Z" transform="translate(-144.122 -729.154)"/><path class="a" d="M144.461,733.392a1,1,0,0,0,1.322,1.5,15.027,15.027,0,0,1,19.838,0,1,1,0,0,0,1.322-1.5A17.026,17.026,0,0,0,144.461,733.392Z" transform="translate(-144.122 -729.154)"/><path class="a" d="M151.653,740.437a1,1,0,0,0,1.158,1.63,5.007,5.007,0,0,1,5.792,0,1,1,0,1,0,1.158-1.63A7.005,7.005,0,0,0,151.653,740.437Z" transform="translate(-144.122 -729.154)"/><path class="a" d="M155.712,744.142h-.01a1.005,1.005,0,1,0,.01,0Z" transform="translate(-144.122 -729.154)"/></svg>