<svg xmlns="http://www.w3.org/2000/svg" width="22" height="22" viewBox="0 0 22 22"><defs><style>.a{fill:#31363d;}</style></defs><path class="a" d="M569.795,439.192h-9a3,3,0,0,0-3,3v9a3,3,0,0,0,3,3h9a3,3,0,0,0,3-3v-9A3,3,0,0,0,569.795,439.192Zm1,12a1,1,0,0,1-1,1h-9a1,1,0,0,1-1-1v-9a1,1,0,0,1,1-1h9a1,1,0,0,1,1,1Z" transform="translate(-550.795 -432.192)"/><path class="a" d="M554.795,445.192h-1a1,1,0,0,1-1-1v-9a1,1,0,0,1,1-1h9a1,1,0,0,1,1,1v1a1,1,0,0,0,2,0v-1a3,3,0,0,0-3-3h-9a3,3,0,0,0-3,3v9a3,3,0,0,0,3,3h1a1,1,0,0,0,0-2Z" transform="translate(-550.795 -432.192)"/></svg>