<svg xmlns="http://www.w3.org/2000/svg" width="23.327" height="22.881" viewBox="0 0 23.327 22.881"><defs><style>.a{fill:#31363d;}</style></defs><path class="a" d="M472.859,290.7h-4.924v-1.1a2.95,2.95,0,0,0-1.039-2.215,3.6,3.6,0,0,0-2.331-.861h-4.728a3.589,3.589,0,0,0-2.331.851,2.966,2.966,0,0,0-1.05,2.237V290.7h-4.924a1,1,0,0,0,0,2H452.9v13.629a2.944,2.944,0,0,0,1.038,2.216,3.507,3.507,0,0,0,2.3.861H468.11a3.682,3.682,0,0,0,2.329-.851,2.959,2.959,0,0,0,1.05-2.237V292.7h1.37a1,1,0,0,0,0-2Zm-3.37,15.607a.96.96,0,0,1-.349.727,1.772,1.772,0,0,1-1.02.372H456.263a1.43,1.43,0,0,1-1.021-.38.946.946,0,0,1-.339-.708V292.7h14.586Zm-11.033-16.682a.963.963,0,0,1,.35-.729,1.542,1.542,0,0,1,1.02-.371h4.749a1.5,1.5,0,0,1,1.021.381.947.947,0,0,1,.339.707V290.7h-7.479Z" transform="translate(-450.532 -286.527)"/></svg>