<svg xmlns="http://www.w3.org/2000/svg" width="19.05" height="22.6" viewBox="0 0 19.05 22.6"><defs><style>.a{fill:#31363d;}</style></defs><path class="a" d="M617.6,304.7a9.687,9.687,0,0,1-6.733-2.766,9.475,9.475,0,0,1,0-13.434l6.178-6.164a.72.72,0,0,1,.555-.237h0a.72.72,0,0,1,.554.237l6.178,6.164a9.483,9.483,0,0,1-6.733,16.2Zm0-20.624-5.624,5.61a7.888,7.888,0,1,0,11.169,0Z" transform="translate(-608.075 -282.1)"/><g transform="translate(2.585 11.271)"><path class="a" d="M617.4,306.4h-.3c-5-1.5-5.3-6.7-5.4-7.3a.945.945,0,0,1,1-1,1,1,0,0,1,1,1,5.832,5.832,0,0,0,3.9,5.4,1.086,1.086,0,0,1,.7,1.2A.808.808,0,0,1,617.4,306.4Z" transform="translate(-611.7 -298.1)"/></g></svg>