<svg xmlns="http://www.w3.org/2000/svg" width="24" height="24" viewBox="0 0 24 24"><defs><style>.a{fill:#31363d;}</style></defs><g transform="translate(0 2.725)"><path class="a" d="M2.106,22.975A3.2,3.2,0,0,1-1,19.868V4.807A3.134,3.134,0,0,1,2.106,1.7H9.635a.889.889,0,0,1,.941.941.889.889,0,0,1-.941.941H2.106A1.315,1.315,0,0,0,.882,4.807V19.868a1.246,1.246,0,0,0,1.223,1.224H17.069a1.246,1.246,0,0,0,1.223-1.224V12.338a.941.941,0,1,1,1.882,0v7.531a3.134,3.134,0,0,1-3.106,3.107Z" transform="translate(1 -1.7)"/></g><g transform="translate(3.575 0)"><path class="a" d="M4.9,19.3a.908.908,0,0,1-.7-.3,1.493,1.493,0,0,1-.3-1l1.3-5.2c0-.2.1-.3.3-.5L17.9.1h0a3.684,3.684,0,0,1,5.3,0,3.684,3.684,0,0,1,0,5.3L10.8,17.7a2.186,2.186,0,0,1-.5.3L5.1,19.3Zm2.2-5.7-.8,3.3,3.3-.8L21.7,4a1.768,1.768,0,0,0-2.5-2.5Z" transform="translate(-3.9 1.025)"/></g></svg>