<svg xmlns="http://www.w3.org/2000/svg" width="23.9" height="23.55" viewBox="0 0 23.9 23.55"><defs><style>.a{fill:#236edf;}</style></defs><g transform="translate(-0.1 -0.15)"><path class="a" d="M21,6.8c0-.1.1-.1.1-.2V6.2c0-.1,0-.1-.1-.2V5.9h0a.1.1,0,0,0-.1-.1l-.1-.1h0L12.5.6A3.069,3.069,0,0,0,9.3.6L1.6,4.9c-.3.1-.5.4-.8.7q-.15,0-.3.3c0,.1-.1.2-.1.4A2.768,2.768,0,0,0,.1,7.6v8.8A2.934,2.934,0,0,0,.5,18a4.263,4.263,0,0,0,1.1,1.2l7.5,4.4a.9.9,0,0,0,.5.1,1.193,1.193,0,0,0,.9-.5,1.012,1.012,0,0,0-.4-1.4L2.6,17.4c-.2-.1-.3-.3-.4-.4a1.421,1.421,0,0,1-.2-.6V8l7.7,4.7v2.9a.945.945,0,0,0,1,1,.945.945,0,0,0,1-1V12.8l8.9-5.5h0a.1.1,0,0,0,.1-.1l.1-.1h0C21,6.9,21,6.8,21,6.8ZM10.2,2.2a1.083,1.083,0,0,1,1.1,0l6.9,4.2L10.7,11,3.1,6.3Z"/><path class="a" d="M13,21.8a.908.908,0,0,1-.7-.3,1.493,1.493,0,0,1-.3-1l.7-2.8c0-.2.1-.3.3-.5l6.7-6.7a2.982,2.982,0,0,1,1.7-.8,2.41,2.41,0,0,1,1.8.7,2.5,2.5,0,0,1,.8,1.8,2.41,2.41,0,0,1-.7,1.8l-.1.1-6.7,6.7a.764.764,0,0,1-.5.2l-2.8.7A.349.349,0,0,0,13,21.8Zm1.6-3.4-.2.9.9-.2,6.5-6.5c.2-.2.2-.3.2-.4s0-.2-.2-.4-.3-.1-.4-.1-.2,0-.4.2h0Zm5.8-7.2Z"/></g></svg>