<svg xmlns="http://www.w3.org/2000/svg" width="23.844" height="23.9" viewBox="0 0 23.844 23.9"><defs><style>.a{fill:#d5d9e0;}</style></defs><g transform="translate(-0.019)"><path class="a" d="M10,23.9h0A10.553,10.553,0,0,1,.1,15.5,10.705,10.705,0,0,1,3,6.8L9.5.3a1.08,1.08,0,0,1,.7-.3h0a.908.908,0,0,1,.7.3l6.5,6.5a12.667,12.667,0,0,1,1.1,1.3.978.978,0,0,1-.2,1.4A.813.813,0,0,1,17,9.3a5.241,5.241,0,0,0-1-1.1L10.2,2.4,4.4,8.2a8.071,8.071,0,0,0-2.3,6.9A8.315,8.315,0,0,0,10,21.8a1,1,0,0,1,1,1A1.029,1.029,0,0,1,10,23.9Z"/><path class="a" d="M9.5,20.1H9.3A6.451,6.451,0,0,1,4,13.2a1.088,1.088,0,0,1,1.1-.9A.945.945,0,0,1,6,13.4a4.326,4.326,0,0,0,3.7,4.7.991.991,0,0,1,.8,1.1A1.063,1.063,0,0,1,9.5,20.1Z"/><path class="a" d="M12.9,21.3a.908.908,0,0,1-.7-.3,1.4,1.4,0,0,1-.3-.9l.7-2.8c0-.2.1-.3.3-.5l6.7-6.7a2.982,2.982,0,0,1,1.7-.8,2.41,2.41,0,0,1,1.8.7,2.508,2.508,0,0,1,.1,3.5l-6.8,6.8a2.186,2.186,0,0,1-.5.3l-2.8.7ZM14.6,18l-.3,1,.9-.2,6.5-6.5c.2-.2.2-.6,0-.7a.6.6,0,0,0-.4-.1c-.1,0-.2,0-.4.2h0Zm5.8-7.2Z"/></g></svg>