<svg xmlns="http://www.w3.org/2000/svg" width="11.362" height="24" viewBox="0 0 11.362 24"><defs><style>.a{fill:#596880;}</style></defs><g transform="translate(-6.31)"><path class="a" d="M12,24a5.71,5.71,0,0,1-3.18-1A5.558,5.558,0,0,1,8,14.34l4-4,4,4a5.62,5.62,0,0,1,.06,7.94,5.23,5.23,0,0,1-.93.76A5.68,5.68,0,0,1,12,24ZM8.83,17H8.66a.8.8,0,0,0-.62.88V18a4.28,4.28,0,0,0,.85,2.38,3.59,3.59,0,0,0,.25.33A4.12,4.12,0,0,0,11,21.9h0a.92.92,0,0,0,.28.05,1,1,0,0,0,.38-.08.73.73,0,0,0,.37-.4.94.94,0,0,0-.22-.86.61.61,0,0,0-.24-.18,2.59,2.59,0,0,1-1.26-.82l-.21-.26a3.17,3.17,0,0,1-.54-1.76A.75.75,0,0,0,8.83,17Z"/><path class="a" d="M8,10.93a1,1,0,0,1-1-1V5.31a1,1,0,0,1,2,0V9.93A1,1,0,0,1,8,10.93Z"/><path class="a" d="M12.08,8.49a1,1,0,0,1-1-1V1a1,1,0,1,1,2,0V7.5A1,1,0,0,1,12.08,8.49Z"/><path class="a" d="M16.14,10.93a1,1,0,0,1-1-1V3.43a1,1,0,1,1,2,0v6.5A1,1,0,0,1,16.14,10.93Z"/></g></svg>