<svg xmlns="http://www.w3.org/2000/svg" width="23.2" height="17.8" viewBox="0 0 23.2 17.8"><defs><style>.a{fill:#31363d;}</style></defs><g transform="translate(-732.9 -2096.6)"><path class="a" d="M754.6,2099.6H734.4a1.5,1.5,0,0,1,0-3h20.2a1.538,1.538,0,0,1,1.5,1.5A1.473,1.473,0,0,1,754.6,2099.6Z"/></g><g transform="translate(-732.9 -2096.6)"><path class="a" d="M754.6,2107H734.4a1.5,1.5,0,0,1,0-3h20.2a1.538,1.538,0,0,1,1.5,1.5A1.473,1.473,0,0,1,754.6,2107Z"/></g><g transform="translate(-732.9 -2096.6)"><path class="a" d="M754.6,2114.4H734.4a1.5,1.5,0,0,1,0-3h20.2a1.538,1.538,0,0,1,1.5,1.5A1.473,1.473,0,0,1,754.6,2114.4Z"/></g></svg>