<svg xmlns="http://www.w3.org/2000/svg" width="23.147" height="24.015" viewBox="0 0 23.147 24.015"><defs><style>.a{fill:#236edf;}</style></defs><path class="a" d="M23.147,10.751A6.037,6.037,0,0,0,17.36,6.129,5.717,5.717,0,0,0,12.731,8.44a3.306,3.306,0,0,0-.964-.2V1.206A1.271,1.271,0,0,0,10.609,0h-.386A6.258,6.258,0,0,0,5.4,6.029a6.033,6.033,0,0,0,2.508,4.923,2.893,2.893,0,0,0-.1.9H1.157A1.2,1.2,0,0,0,0,13.062v.3a6.037,6.037,0,0,0,5.787,4.622,5.717,5.717,0,0,0,4.629-2.311,3.307,3.307,0,0,0,.964.2v6.933a1.138,1.138,0,0,0,1.157,1.206h.386a6.258,6.258,0,0,0,4.822-6.029,6.033,6.033,0,0,0-2.508-4.923,2.893,2.893,0,0,0,.1-.9h6.558a1.178,1.178,0,0,0,1.157-1.105A.379.379,0,0,0,23.147,10.751ZM11.573,13.866a1.871,1.871,0,0,1-1.929-1.809,1.871,1.871,0,0,1,1.929-1.809A1.871,1.871,0,0,1,13.5,12.058,1.871,1.871,0,0,1,11.573,13.866Z"/></svg>