<svg xmlns="http://www.w3.org/2000/svg" width="20" height="20" viewBox="0 0 20 20"><defs><style>.a{fill:#31363d;}</style></defs><path class="a" d="M560.205,142.121h7a1,1,0,0,0,1-1v-7a1,1,0,0,0-1-1h-7a1,1,0,0,0-1,1v7A1,1,0,0,0,560.205,142.121Zm1-7h5v5h-5Z" transform="translate(-559.205 -133.121)"/><path class="a" d="M571.205,142.121h7a1,1,0,0,0,1-1v-7a1,1,0,0,0-1-1h-7a1,1,0,0,0-1,1v7A1,1,0,0,0,571.205,142.121Zm1-7h5v5h-5Z" transform="translate(-559.205 -133.121)"/><path class="a" d="M571.205,153.121h7a1,1,0,0,0,1-1v-7a1,1,0,0,0-1-1h-7a1,1,0,0,0-1,1v7A1,1,0,0,0,571.205,153.121Zm1-7h5v5h-5Z" transform="translate(-559.205 -133.121)"/><path class="a" d="M568.205,152.121v-7a1,1,0,0,0-1-1h-7a1,1,0,0,0-1,1v7a1,1,0,0,0,1,1h7A1,1,0,0,0,568.205,152.121Zm-2-1h-5v-5h5Z" transform="translate(-559.205 -133.121)"/></svg>