<svg xmlns="http://www.w3.org/2000/svg" width="12.757" height="14.175" viewBox="0 0 12.757 14.175"><defs><style>.a{fill:#31363d;}</style></defs><g transform="translate(-458.56 -1244.412)"><path class="a" d="M349.478,689.821v1.417a.709.709,0,0,0,1.417,0v-1.417a3.548,3.548,0,0,0-3.544-3.544h-5.67a3.548,3.548,0,0,0-3.544,3.544v1.417a.709.709,0,0,0,1.417,0v-1.417a2.128,2.128,0,0,1,2.126-2.126h5.67A2.129,2.129,0,0,1,349.478,689.821Z" transform="translate(120.422 566.64)"/><path class="a" d="M342.138,677.821a3.544,3.544,0,1,0,3.544-3.544A3.548,3.548,0,0,0,342.138,677.821Zm5.67,0a2.126,2.126,0,1,1-2.126-2.126A2.128,2.128,0,0,1,347.808,677.821Z" transform="translate(119.257 570.135)"/></g></svg>