<svg xmlns="http://www.w3.org/2000/svg" width="22.905" height="20.1" viewBox="0 0 22.905 20.1"><defs><style>.a{fill:#cf031b;}</style></defs><g transform="translate(-606.772 -288.685)"><path class="a" d="M609.757,308.785a2.93,2.93,0,0,1-1.51-.426,2.977,2.977,0,0,1-1.061-4.081l8.473-14.147.006-.009a3.08,3.08,0,0,1,1.081-1.053,3.045,3.045,0,0,1,2.94-.011,3.091,3.091,0,0,1,1.1,1.064l8.476,14.149a2.988,2.988,0,0,1-1.076,4.1,2.907,2.907,0,0,1-1.486.415Zm7.614-17.62L608.9,305.3a1.007,1.007,0,0,0,.859,1.486H626.7a.93.93,0,0,0,.471-.135.992.992,0,0,0,.477-.612.981.981,0,0,0-.1-.749l-8.464-14.13a1.062,1.062,0,0,0-.372-.357,1.034,1.034,0,0,0-.982.011A1.062,1.062,0,0,0,617.371,291.165Z"/></g><g transform="translate(-606.772 -288.685)"><path class="a" d="M618.227,300.785a1,1,0,0,1-1-1v-4a1,1,0,0,1,2,0v4A1,1,0,0,1,618.227,300.785Z"/></g><g transform="translate(-606.772 -288.685)"><path class="a" d="M618.236,304.785a1,1,0,1,1-.009-2h.009a1,1,0,0,1,0,2Z"/></g></svg>