<svg xmlns="http://www.w3.org/2000/svg" width="22" height="22" viewBox="0 0 22 22"><defs><style>.a{fill:#44566e;}</style></defs><path class="a" d="M160.229,223.807a11,11,0,1,0-11,11A11.013,11.013,0,0,0,160.229,223.807Zm-11,9a9,9,0,1,1,9-9A9.01,9.01,0,0,1,149.229,232.807Z" transform="translate(-138.229 -212.807)"/><path class="a" d="M150.477,218.029a4,4,0,0,0-5.1,2.446,1,1,0,0,0,1.887.664,2,2,0,0,1,2.55-1.223,2,2,0,0,1,1.337,1.891c0,1.034-1.717,1.848-2.316,2.051a1,1,0,1,0,.632,1.9c.377-.126,3.684-1.3,3.684-3.947A4.007,4.007,0,0,0,150.477,218.029Z" transform="translate(-138.229 -212.807)"/><path class="a" d="M149.239,227.807h-.01a1.005,1.005,0,1,0,.01,0Z" transform="translate(-138.229 -212.807)"/></svg>