<svg xmlns="http://www.w3.org/2000/svg" width="24" height="24" viewBox="0 0 24 24"><defs><style>.a{fill:#31363d;}</style></defs><path class="a" d="M519.182,67.081a7.146,7.146,0,0,1,1.873-.213c5.375,0,8.918,5.388,9.856,7a17.465,17.465,0,0,1-1.782,2.547A1,1,0,0,0,530.66,77.7a19.637,19.637,0,0,0,2.277-3.363,1,1,0,0,0,.012-.919c-.175-.349-4.363-8.552-11.891-8.552a9.248,9.248,0,0,0-2.331.266,1,1,0,1,0,.455,1.947Z" transform="translate(-509.055 -61.868)"/><path class="a" d="M509.174,73.395a1,1,0,0,0-.014.92c.175.349,4.363,8.553,11.911,8.553a11.159,11.159,0,0,0,5.809-1.761l4.468,4.468a1,1,0,1,0,1.414-1.414l-22-22a1,1,0,0,0-1.414,1.414l4.294,4.294A19.254,19.254,0,0,0,509.174,73.395Zm9.911-.083,2.521,2.521a2,2,0,0,1-.556.108,1.957,1.957,0,0,1-1.434-.536A2,2,0,0,1,519.085,73.312Zm-1.491-1.491a4,4,0,0,0,3.382,6.121l.145,0a3.967,3.967,0,0,0,1.972-.62l2.327,2.327a9.107,9.107,0,0,1-4.365,1.221c-5.374,0-8.917-5.388-9.857-7a17.293,17.293,0,0,1,3.858-4.586Z" transform="translate(-509.055 -61.868)"/></svg>