<svg xmlns="http://www.w3.org/2000/svg" width="21.6" height="23.825" viewBox="0 0 21.6 23.825"><defs><style>.a{fill:#236edf;}</style></defs><path class="a" d="M21.2,7.8,11.4.2a.91.91,0,0,0-1.2,0L.4,7.8a.909.909,0,0,0-.4.8v12a3.222,3.222,0,0,0,3.2,3.2H18.4a3.222,3.222,0,0,0,3.2-3.2V8.6A1.235,1.235,0,0,0,21.2,7.8Zm-8.1,14H8.5V12.9H13v8.9Zm6.5-1.2a1.216,1.216,0,0,1-1.2,1.2H15V11.9a.945.945,0,0,0-1-1H7.5a.945.945,0,0,0-1,1v9.9H3.2A1.216,1.216,0,0,1,2,20.6V9.1l8.8-6.8,8.8,6.8Z" transform="translate(0 0.025)"/></svg>