<svg xmlns="http://www.w3.org/2000/svg" width="20" height="20" viewBox="0 0 20 20"><defs><style>.a{fill:#44566e;}</style></defs><g transform="translate(0 0)"><path class="a" d="M465.227,308.784a10,10,0,1,1,10-10A10.011,10.011,0,0,1,465.227,308.784Zm0-18a8,8,0,1,0,8,8A8.009,8.009,0,0,0,465.227,290.784Z" transform="translate(-455.227 -288.784)"/></g><g transform="translate(9 4.865)"><path class="a" d="M465.227,300.178a1,1,0,0,1-1-1v-4.529a1,1,0,0,1,2,0v4.529A1,1,0,0,1,465.227,300.178Z" transform="translate(-464.227 -293.649)"/></g><g transform="translate(9.004 12.6)"><path class="a" d="M465.237,303.384a1,1,0,0,1-1.006-1,.994.994,0,0,1,.994-1h.012a1,1,0,0,1,0,2Z" transform="translate(-464.231 -301.384)"/></g></svg>