<svg xmlns="http://www.w3.org/2000/svg" width="23.078" height="22.975" viewBox="0 0 23.078 22.975"><defs><style>.a{fill:#31363d;}</style></defs><path class="a" d="M10.5,13.5c-.17,0-.256,0-.341-.1L-.489,7.1A.835.835,0,0,1-1,6.3a1.1,1.1,0,0,1,.511-.9L10.159-.9a1.017,1.017,0,0,1,.767,0L21.574,5.4A.975.975,0,0,1,22,6.3a.752.752,0,0,1-.511.8L10.841,13.3C10.756,13.5,10.67,13.5,10.5,13.5ZM1.726,6.3,10.5,11.4l8.774-5.1L10.5,1.1Z" transform="translate(1 0.975)"/><g transform="translate(0.059 14.734)"><path class="a" d="M10.51,26c-.17,0-.256,0-.341-.1L-.48,19.6a.954.954,0,0,1-.341-1.3.708.708,0,0,1,1.108-.4l10.309,6,10.309-6a.832.832,0,0,1,1.108.4,1.205,1.205,0,0,1-.341,1.3L11.021,25.9A1.1,1.1,0,0,1,10.51,26Z" transform="translate(0.941 -17.759)"/></g><g transform="translate(0.059 10.858)"><path class="a" d="M10.51,19.8c-.17,0-.256,0-.341-.1L-.48,13.4a.954.954,0,0,1-.341-1.3.708.708,0,0,1,1.108-.4l10.309,6,10.309-6a.832.832,0,0,1,1.108.4,1.205,1.205,0,0,1-.341,1.3L11.021,19.7C10.766,19.7,10.681,19.8,10.51,19.8Z" transform="translate(0.941 -11.559)"/></g></svg>