<svg xmlns="http://www.w3.org/2000/svg" width="18.865" height="23.969" viewBox="0 0 18.865 23.969"><defs><style>.a{fill:#31363d;}</style></defs><path class="a" d="M80.638,120.306a2.667,2.667,0,0,0-1.9-.788H71.684l-1.39-2.084a1,1,0,0,0-.832-.446H65.246a2.685,2.685,0,0,0-2.686,2.687v11.806a2.684,2.684,0,0,0,2.686,2.686h2.513a6.048,6.048,0,1,0,11.974-.194,2.672,2.672,0,0,0,1.692-2.492v-9.276A2.7,2.7,0,0,0,80.638,120.306ZM77.509,136.45a4.046,4.046,0,0,1-1.494,1.822,4.123,4.123,0,0,1-4.512,0,4.059,4.059,0,0,1-.613-6.248l2.866-2.872,2.872,2.874a4.055,4.055,0,0,1,.881,4.423Zm-3.047-9.418a1,1,0,0,0-.707-.293h0a1.006,1.006,0,0,0-.708.293l-3.571,3.579a6.024,6.024,0,0,0-1.118,1.556H65.246a.683.683,0,0,1-.686-.686V119.675a.685.685,0,0,1,.686-.687h3.681l1.39,2.085a1,1,0,0,0,.832.445h7.589a.688.688,0,0,1,.687.687v9.276a.686.686,0,0,1-.2.485.643.643,0,0,1-.12.08,6.025,6.025,0,0,0-1.063-1.434Z" transform="translate(-62.56 -116.988)"/></svg>