<svg xmlns="http://www.w3.org/2000/svg" width="22.356" height="24.617" viewBox="0 0 22.356 24.617"><defs><style>.a{fill:#31363d;}</style></defs><path class="a" d="M764.433,296.962h-1.264v-3.523a6.655,6.655,0,1,0-13.309,0v3.523H748.6a3.272,3.272,0,0,0-3.262,3.262v7.918A3.269,3.269,0,0,0,748.6,311.4h15.833a3.268,3.268,0,0,0,3.26-3.261v-7.918A3.27,3.27,0,0,0,764.433,296.962Zm-12.573-3.523a4.655,4.655,0,1,1,9.309,0v3.523H751.86Zm13.833,14.7a1.266,1.266,0,0,1-1.261,1.263H748.6a1.267,1.267,0,0,1-1.264-1.261v-7.914a1.267,1.267,0,0,1,1.263-1.264h15.831a1.266,1.266,0,0,1,1.262,1.262Z" transform="translate(-745.337 -286.784)"/></svg>