<svg xmlns="http://www.w3.org/2000/svg" width="22.77" height="24" viewBox="0 0 22.77 24"><defs><style>.a{fill:#31363d;}</style></defs><g transform="translate(9.6 24) rotate(180)"><path class="a" d="M6,24H1.2a1.2,1.2,0,1,1,0-2.4H6a1.134,1.134,0,0,0,1.2-1.2V3.6A1.134,1.134,0,0,0,6,2.4H1.2A1.134,1.134,0,0,1,0,1.2,1.134,1.134,0,0,1,1.2,0H6A3.536,3.536,0,0,1,9.6,3.6V20.4A3.536,3.536,0,0,1,6,24Z"/></g><path class="a" d="M16.68,11.68a1.315,1.315,0,0,0,0-.96c-.12-.12-.12-.24-.24-.36l-6-6A1.188,1.188,0,0,0,8.76,6.04L12.72,10H1.2A1.134,1.134,0,0,0,0,11.2a1.134,1.134,0,0,0,1.2,1.2H12.72L8.76,16.36a1.16,1.16,0,0,0,0,1.68,1.16,1.16,0,0,0,1.68,0l6-6C16.56,11.92,16.68,11.8,16.68,11.68Z" transform="translate(6 0.8)"/></svg>