<svg xmlns="http://www.w3.org/2000/svg" width="21.18" height="25.9" viewBox="0 0 21.18 25.9"><defs><style>.a{fill:#31363d;}</style></defs><path class="a" d="M203.574,119.124a3.463,3.463,0,0,0-2.5-1.073h-2.53a2,2,0,0,0-1.976-1.717h-5.15a2,2,0,0,0-1.975,1.718h-2.539a3.463,3.463,0,0,0-2.494,1.065,3.573,3.573,0,0,0-1.011,2.515v17.014a3.567,3.567,0,0,0,1,2.513,3.468,3.468,0,0,0,2.5,1.075h14.164a3.456,3.456,0,0,0,2.5-1.067,3.575,3.575,0,0,0,1.012-2.513V121.637A3.574,3.574,0,0,0,203.574,119.124Zm-11.867-.5h4.576v1.142h-4.576Zm10.58,20.033a1.3,1.3,0,0,1-.375.92,1.162,1.162,0,0,1-.84.361H186.908a1.17,1.17,0,0,1-.848-.369,1.294,1.294,0,0,1-.367-.918v-17.03a1.3,1.3,0,0,1,.374-.919,1.163,1.163,0,0,1,.84-.36h2.538a2,2,0,0,0,1.975,1.716h5.15a2,2,0,0,0,1.976-1.717h2.529a1.168,1.168,0,0,1,.846.368,1.294,1.294,0,0,1,.367.919Z" transform="translate(-183.4 -116.334)"/><g transform="translate(4.015 7.377)"><path class="a" d="M199.213,125.063H188.049a1.146,1.146,0,0,1,0-2.293h11.163a1.146,1.146,0,0,1,0,2.293Z" transform="translate(-186.903 -122.77)"/></g><g transform="translate(4.015 11.263)"><path class="a" d="M199.213,128.453H188.049a1.146,1.146,0,0,1,0-2.293h11.163a1.146,1.146,0,0,1,0,2.293Z" transform="translate(-186.903 -126.16)"/></g><g transform="translate(4.015 15.149)"><path class="a" d="M195.1,131.843h-7.047a1.146,1.146,0,0,1,0-2.293H195.1a1.146,1.146,0,0,1,0,2.293Z" transform="translate(-186.903 -129.55)"/></g></svg>