<svg xmlns="http://www.w3.org/2000/svg" width="24" height="24" viewBox="0 0 24 24"><defs><style>.a{fill:#31363d;}</style></defs><path class="a" d="M561.4,439.192h10.8a3.6,3.6,0,0,1,3.6,3.6v10.8a3.6,3.6,0,0,1-3.6,3.6H561.4a3.6,3.6,0,0,1-3.6-3.6v-10.8A3.6,3.6,0,0,1,561.4,439.192Zm-1.2,14.4a1.2,1.2,0,0,0,1.2,1.2h10.8a1.2,1.2,0,0,0,1.2-1.2v-10.8a1.2,1.2,0,0,0-1.2-1.2H561.4a1.2,1.2,0,0,0-1.2,1.2Z" transform="translate(-557.795 -433.192)"/><path class="a" d="M564.995,447.792h.2a1.2,1.2,0,0,0,1.2-1.2v-10.8a1.2,1.2,0,0,0-1.2-1.2H554.4a1.2,1.2,0,0,0-1.2,1.2v.2a1.2,1.2,0,0,1-2.4,0v-.2a3.6,3.6,0,0,1,3.6-3.6h10.8a3.6,3.6,0,0,1,3.6,3.6v10.8a3.6,3.6,0,0,1-3.6,3.6h-.2a1.2,1.2,0,0,1,0-2.4Z" transform="translate(-544.795 -432.192)"/></svg>