<svg xmlns="http://www.w3.org/2000/svg" width="20" height="20" viewBox="0 0 20 20"><defs><style>.a{fill:#31363d;}</style></defs><path class="a" d="M305.1,299.675a1,1,0,0,0,1-1v-3a1,1,0,0,1,1-1h3a1,1,0,0,0,0-2h-3a3,3,0,0,0-3,3v3A1,1,0,0,0,305.1,299.675Z" transform="translate(-304.103 -292.675)"/><path class="a" d="M318.1,312.675h3a3,3,0,0,0,3-3v-3a1,1,0,1,0-2,0v3a1,1,0,0,1-1,1h-3a1,1,0,0,0,0,2Z" transform="translate(-304.103 -292.675)"/><path class="a" d="M304.1,309.675a3,3,0,0,0,3,3h3a1,1,0,0,0,0-2h-3a1,1,0,0,1-1-1v-3a1,1,0,1,0-2,0Z" transform="translate(-304.103 -292.675)"/><path class="a" d="M323.1,299.675a1,1,0,0,0,1-1v-3a3,3,0,0,0-3-3h-3a1,1,0,0,0,0,2h3a1,1,0,0,1,1,1v3A1,1,0,0,0,323.1,299.675Z" transform="translate(-304.103 -292.675)"/></svg>