<svg xmlns="http://www.w3.org/2000/svg" width="20" height="20" viewBox="0 0 20 20"><defs><style>.a{fill:#31363d;}</style></defs><path class="a" d="M53.078,381.217a1,1,0,0,0,1-1v-3a3,3,0,0,0-3-3h-3a1,1,0,0,0,0,2h3a1,1,0,0,1,1,1v3A1,1,0,0,0,53.078,381.217Z" transform="translate(-47.078 -361.217)"/><path class="a" d="M60.078,380.217a1,1,0,0,0,2,0v-3a1,1,0,0,1,1-1h3a1,1,0,0,0,0-2h-3a3,3,0,0,0-3,3Z" transform="translate(-47.078 -361.217)"/><path class="a" d="M60.078,365.217a3,3,0,0,0,3,3h3a1,1,0,0,0,0-2h-3a1,1,0,0,1-1-1v-3a1,1,0,0,0-2,0Z" transform="translate(-47.078 -361.217)"/><path class="a" d="M54.078,362.217a1,1,0,0,0-2,0v3a1,1,0,0,1-1,1h-3a1,1,0,0,0,0,2h3a3,3,0,0,0,3-3Z" transform="translate(-47.078 -361.217)"/></svg>