<svg xmlns="http://www.w3.org/2000/svg" width="23" height="23.825" viewBox="0 0 23 23.825"><defs><style>.a{fill:#31363d;}</style></defs><path class="a" d="M22.574,5.986c0-.08,0-.08-.085-.16l-.256-.24a2.889,2.889,0,0,0-.937-.8L13.033.394A3.333,3.333,0,0,0,9.8.394L1.619,4.788a4.376,4.376,0,0,0-.937.8,1.113,1.113,0,0,0-.256.32c0,.08,0,.08-.085.16A3.571,3.571,0,0,0,0,7.424v8.867a3.145,3.145,0,0,0,.426,1.518,3.109,3.109,0,0,0,1.193,1.118l8.263,4.394a2.986,2.986,0,0,0,1.193.4.673.673,0,0,0,.426.08c.17,0,.256-.08.426-.08a2.986,2.986,0,0,0,1.193-.4l8.263-4.394a3.112,3.112,0,0,0,1.193-1.118A3.145,3.145,0,0,0,23,16.291V7.424A4.617,4.617,0,0,0,22.574,5.986ZM10.733,1.752a2.148,2.148,0,0,1,.767-.16,2.628,2.628,0,0,1,.767.16l8.093,4.314L11.5,10.859,2.641,6.066ZM2.47,17.489a1.933,1.933,0,0,1-.6-.559,1.431,1.431,0,0,1-.17-.639V7.5L10.648,12.3V21.8Zm18.57-.479a3.548,3.548,0,0,1-.511.559l-8.178,4.394V12.3L21.3,7.5v8.787Z" transform="translate(0 0.025)"/></svg>