<svg xmlns="http://www.w3.org/2000/svg" width="17.814" height="23.895" viewBox="0 0 17.814 23.895"><defs><style>.a{fill:#236edf;}.b{fill:none;}</style></defs><g transform="translate(17.714 23.914) rotate(180)"><path class="a" d="M8.2.3A.91.91,0,0,1,9.4.2a.1.1,0,0,1,.1.1l8,9.3a.792.792,0,0,1-.1,1.1l-.1.1c-.2.1-.3.2-.5.2H.8a.817.817,0,0,1-.9-.8.764.764,0,0,1,.2-.5Z"/><path class="b" d="M8.2,23.6a.817.817,0,0,0,1.2.1.1.1,0,0,0,.1-.1l8-9.3a.792.792,0,0,0-.1-1.1l-.1-.1c-.2-.1-.3-.2-.5-.2H.8a1.063,1.063,0,0,0-.8.9.764.764,0,0,0,.2.5Z"/><path class="a" d="M8.9,21.3,14.4,15H3.4l5.5,6.3m0,2.6a.908.908,0,0,1-.7-.3l-8-9.3a.764.764,0,0,1-.2-.5A.882.882,0,0,1,.9,13h16a.764.764,0,0,1,.5.2.713.713,0,0,1,.1,1.1l-8,9.3-.1.1C9.3,23.9,9.1,23.9,8.9,23.9Z"/></g></svg>