<svg xmlns="http://www.w3.org/2000/svg" width="24" height="24.003" viewBox="0 0 24 24.003"><defs><style>.a{fill:#31363d;}</style></defs><path class="a" d="M435.9,292.971a1,1,0,0,0,0,1.414l7.707,7.707v2.586a4,4,0,0,0,4,4h0a3.965,3.965,0,0,0,2.016-.564l1.476,1.476a5.976,5.976,0,0,1-3.317,1.127.97.97,0,0,0-.178-.036.939.939,0,0,0-.151.03,5.962,5.962,0,0,1-4.049-1.693,6.035,6.035,0,0,1-1.8-4.337v-2a1,1,0,0,0-2,0v1.992a8.04,8.04,0,0,0,2.4,5.773,7.944,7.944,0,0,0,4.6,2.212v2.023h-3a1,1,0,0,0,0,2h8a1,1,0,0,0,0-2h-3v-2.023a7.956,7.956,0,0,0,3.928-1.635l5.365,5.365a1,1,0,0,0,1.414-1.414l-5.9-5.9a.953.953,0,0,0-.106-.156.919.919,0,0,0-.143-.093l-7.85-7.849v0l-8-8A1,1,0,0,0,435.9,292.971Zm11.708,13.7h0a2,2,0,0,1-2-2v-.586l2.509,2.51A2,2,0,0,1,447.6,306.675Z" transform="translate(-435.603 -292.675)"/><path class="a" d="M450.6,303.018a1,1,0,0,0,1-1v-5.339a4,4,0,0,0-4-4h0a4.013,4.013,0,0,0-3.921,3.2,1,1,0,1,0,1.961.4,2,2,0,0,1,1.96-1.6h0a2,2,0,0,1,2,2v5.34A1,1,0,0,0,450.6,303.018Z" transform="translate(-435.603 -292.675)"/><path class="a" d="M453.6,302.678v2a6,6,0,0,1-.1,1.052,1,1,0,1,0,1.969.355,7.922,7.922,0,0,0,.126-1.407v-2a1,1,0,0,0-2,0Z" transform="translate(-435.603 -292.675)"/></svg>