<svg xmlns="http://www.w3.org/2000/svg" width="24" height="24" viewBox="0 0 24 24"><defs><style>.a{fill:#31363d;}</style></defs><path class="a" d="M113.958,734.567l0,0-5.127-5.126a1,1,0,1,0-1.414,1.414l4.093,4.093a16.823,16.823,0,0,0-3.629,2.451,1,1,0,0,0,1.326,1.5,14.792,14.792,0,0,1,3.816-2.437l2.324,2.325a11.96,11.96,0,0,0-3.865,2.145,1,1,0,0,0,1.284,1.535,9.916,9.916,0,0,1,4.207-2.054l2.788,2.787a6.988,6.988,0,0,0-4.686,1.244,1,1,0,0,0,1.158,1.631,5.007,5.007,0,0,1,5.792,0,.741.741,0,0,0,.754.143l6.638,6.639a1,1,0,0,0,1.414-1.414Z" transform="translate(-107.122 -729.145)"/><path class="a" d="M122.944,739.765a1,1,0,0,0,.459,1.338,9.935,9.935,0,0,1,2.072,1.354,1,1,0,0,0,1.294-1.525,11.942,11.942,0,0,0-2.487-1.626A1,1,0,0,0,122.944,739.765Z" transform="translate(-107.122 -729.145)"/><path class="a" d="M129.7,739.145a1,1,0,0,0,.662-1.75,17.1,17.1,0,0,0-12.612-4.2,1,1,0,1,0,.16,1.994,15.065,15.065,0,0,1,11.129,3.7A.994.994,0,0,0,129.7,739.145Z" transform="translate(-107.122 -729.145)"/><path class="a" d="M119.132,748.145h-.01a1.005,1.005,0,1,0,.01,0Z" transform="translate(-107.122 -729.145)"/></svg>