<svg xmlns="http://www.w3.org/2000/svg" width="22.356" height="24.597" viewBox="0 0 22.356 24.597"><defs><style>.a{fill:#31363d;}</style></defs><path class="a" d="M110.494,695.521V687.7a3.357,3.357,0,0,0-3.353-3.353h-12.3v-3.354a4.476,4.476,0,0,1,4.467-4.476h.006a4.484,4.484,0,0,1,4.381,3.581,1.118,1.118,0,1,0,2.191-.445,6.728,6.728,0,0,0-6.572-5.372h-.009a6.715,6.715,0,0,0-6.7,6.712v3.353H91.491a3.357,3.357,0,0,0-3.353,3.353v7.825a3.356,3.356,0,0,0,3.353,3.353h15.649A3.357,3.357,0,0,0,110.494,695.521Zm-2.236,0a1.119,1.119,0,0,1-1.118,1.118H91.491a1.118,1.118,0,0,1-1.118-1.118V687.7a1.118,1.118,0,0,1,1.118-1.118h15.649a1.119,1.119,0,0,1,1.118,1.118Z" transform="translate(-88.138 -674.277)"/></svg>