<svg xmlns="http://www.w3.org/2000/svg" width="21.436" height="22.608" viewBox="0 0 21.436 22.608"><defs><style>.a{fill:#31363d;}</style></defs><path class="a" d="M491.13,381.776a7.011,7.011,0,0,0,9.9,0l9.191-9.19a1,1,0,1,0-1.414-1.414l-9.191,9.19a5,5,0,0,1-7.076-7.076l9.19-9.19a3.073,3.073,0,0,1,4.246,0,3.006,3.006,0,0,1,0,4.245l-9.2,9.191a1.024,1.024,0,0,1-1.416,0,1,1,0,0,1,0-1.416l8.49-8.48a1,1,0,1,0-1.414-1.415l-8.49,8.481a3,3,0,0,0,0,4.244,3.073,3.073,0,0,0,4.244,0l9.2-9.19a5,5,0,1,0-7.075-7.074l-9.19,9.19A7.01,7.01,0,0,0,491.13,381.776Z" transform="translate(-489.082 -361.216)"/></svg>