<svg xmlns="http://www.w3.org/2000/svg" width="19.135" height="21.512" viewBox="0 0 19.135 21.512"><defs><style>.a{fill:#31363d;}</style></defs><g transform="translate(0 0)"><g transform="translate(-515.585 -287.919)"><path class="a" d="M533.721,306.75a1,1,0,0,1-.708-.293l-3.5-3.5a1,1,0,1,1,1.415-1.414l3.5,3.5a1,1,0,0,1-.707,1.707Z"/><path class="a" d="M525.153,309.431a1,1,0,0,1-1-1v-4.375a1,1,0,0,1,2,0v4.375A1,1,0,0,1,525.153,309.431Z"/><path class="a" d="M516.585,306.556a1,1,0,0,1-.707-1.707l3.5-3.5a1,1,0,0,1,1.415,1.414l-3.5,3.5A1,1,0,0,1,516.585,306.556Z"/></g><path class="a" d="M534.357,290.475a2.493,2.493,0,0,0-2.619-2.553h-15.16l1.966,0a2.609,2.609,0,0,0-2.6,2.58v4.13a2.594,2.594,0,0,0,2.63,2.536h1.135a5.5,5.5,0,0,0,1.445,2.569,5.693,5.693,0,0,0,8,0,5.485,5.485,0,0,0,1.456-2.569h1.124a2.763,2.763,0,0,0,2.62-2.536Zm-1.39,3.636a1.47,1.47,0,0,1-1.486,1.452H518.936a1.469,1.469,0,0,1-1.485-1.452V290.7a1.469,1.469,0,0,1,1.485-1.453h12.545a1.47,1.47,0,0,1,1.486,1.453Z" transform="translate(-515.585 -287.919)"/></g></svg>