<svg xmlns="http://www.w3.org/2000/svg" width="19.135" height="21.512" viewBox="0 0 19.135 21.512"><defs><style>.a{fill:#596880;}</style></defs><path class="a" d="M567.537,289.475a1.579,1.579,0,0,0-1.619-1.553h-15.16l-.033,0a1.585,1.585,0,0,0-1.6,1.58v6.13a1.579,1.579,0,0,0,1.63,1.536h2.136a5.511,5.511,0,0,0,1.444,2.569,5.693,5.693,0,0,0,8,0,5.478,5.478,0,0,0,1.457-2.569h2.123a1.579,1.579,0,0,0,1.62-1.536v-6.155Zm-6.529,8.972a4.11,4.11,0,0,1-5.34,0,3.329,3.329,0,0,1-.725-1.02h6.789A3.415,3.415,0,0,1,561.008,298.447Z" transform="translate(-548.766 -287.919)"/><g transform="translate(-548.766 -287.919)"><path class="a" d="M566.9,306.75a1,1,0,0,1-.708-.293l-3.5-3.5a1,1,0,1,1,1.415-1.414l3.5,3.5a1,1,0,0,1-.707,1.707Z"/><path class="a" d="M558.333,309.431a1,1,0,0,1-1-1v-4.375a1,1,0,0,1,2,0v4.375A1,1,0,0,1,558.333,309.431Z"/><path class="a" d="M549.765,306.556a1,1,0,0,1-.707-1.707l3.5-3.5a1,1,0,1,1,1.415,1.414l-3.5,3.5A1,1,0,0,1,549.765,306.556Z"/></g></svg>