<svg xmlns="http://www.w3.org/2000/svg" width="20.6" height="25.74" viewBox="0 0 20.6 25.74"><defs><style>.a,.b{fill:#596880;}.b{font-size:8px;font-family:Roboto-Black, Roboto;font-weight:800;}</style></defs><g transform="translate(-4.06 1.74)"><path class="a" d="M8.89,23,7.74,17.9a.36.36,0,0,1,.35-.44h1.7a.36.36,0,0,1,.35.44L9,23Zm2.92-7.84H6.06a1.51,1.51,0,0,1-1.51-1.51V2A1.51,1.51,0,0,1,6.06.5h5.75A1.5,1.5,0,0,1,13.32,2V13.6a1.5,1.5,0,0,1-1.51,1.52ZM8.94,2.44A1.27,1.27,0,0,0,7.67,3.72V11.9a1.27,1.27,0,0,0,2.54,0V3.72A1.27,1.27,0,0,0,8.94,2.44Z"/><path class="a" d="M8.94,21l.68-3H8.25l.69,3m2.92-6.33a1,1,0,0,0,1-1V2a1,1,0,0,0-1-1H6.06A1,1,0,0,0,5,2V13.6a1,1,0,0,0,1,1h5.8M8.94,2a1.76,1.76,0,0,1,1.75,1.76v8A1.85,1.85,0,0,1,9.2,13.64a1.77,1.77,0,0,1-2-1.74V3.72A1.76,1.76,0,0,1,8.94,2m0,22a.4.4,0,0,1-.39-.3L7.13,17.41A.36.36,0,0,1,7.48,17H10.4a.36.36,0,0,1,.35.44L9.32,23.69A.39.39,0,0,1,8.94,24Zm2.87-8.38H6.06a2,2,0,0,1-2-2V2a2,2,0,0,1,2-2h5.75a2,2,0,0,1,2,2V13.6a2,2,0,0,1-2,2.01ZM8.94,2.93a.78.78,0,0,0-.78.79V11.9a.78.78,0,0,0,1.56,0V3.72a.78.78,0,0,0-.78-.79Z"/><text class="b" transform="translate(14.66 6.26)"><tspan x="0" y="0">10</tspan></text></g></svg>