<svg xmlns="http://www.w3.org/2000/svg" width="15" height="24.1" viewBox="0 0 15 24.1"><defs><style>.a{fill:#31363d;}</style></defs><path class="a" d="M12.75,0H2.25A2.258,2.258,0,0,0,0,2.252V19.52a2.211,2.211,0,0,0,2.25,2.252H3.6v.075a2.282,2.282,0,0,0,.375.526v.075l.45.45.075.075a3.175,3.175,0,0,0,.525.375.073.073,0,0,1,.075.075c.15.075.375.225.525.3h0a7.093,7.093,0,0,0,1.35.375H8.1c.15,0,.3-.075.45-.075H8.7c.15-.075.3-.075.45-.15h.075l.45-.225c.075,0,.075-.075.15-.075a.39.39,0,0,1,.3-.15c.075-.075.15-.075.225-.15s.15-.075.225-.15c.15-.075.225-.225.375-.375l.15-.15c.075-.075.15-.15.15-.225.075-.075.075-.15.15-.225,0-.075.075-.075.075-.15H12.75A2.211,2.211,0,0,0,15,19.745V2.252A2.211,2.211,0,0,0,12.75,0ZM7.5,16.517h0a3.01,3.01,0,0,1,3,3,2.778,2.778,0,0,1-.45,1.577.074.074,0,0,1-.075.075,1.318,1.318,0,0,1-.3.375l-.075.075c-.075.075-.225.15-.3.225L9.15,22c-.075.075-.15.075-.3.15-.075.075-.15.075-.225.15-.075,0-.15.075-.225.075s-.225.075-.3.075H7.5a.676.676,0,0,1-.375-.075h-.3c-.15-.075-.3-.075-.45-.15-.075-.075-.15-.075-.3-.15C6,22,5.925,22,5.85,21.923a1.989,1.989,0,0,1-.45-.375c-.075.075-.15,0-.15-.075l-.225-.225L4.8,20.8a2.655,2.655,0,0,1-.3-1.276A3.01,3.01,0,0,1,7.5,16.517Zm6,3a.709.709,0,0,1-.75.751h-.825A2.557,2.557,0,0,0,12,19.52a4.515,4.515,0,0,0-3.75-4.43V4.88a.709.709,0,0,0-.75-.751.709.709,0,0,0-.75.751V15.091A4.515,4.515,0,0,0,3,19.52a2.557,2.557,0,0,0,.075.751H2.25a.709.709,0,0,1-.75-.751V2.252A.709.709,0,0,1,2.25,1.5h10.5a.709.709,0,0,1,.75.751Z"/></svg>