<svg xmlns="http://www.w3.org/2000/svg" width="18.633" height="21.866" viewBox="0 0 18.633 21.866"><defs><style>.a{fill:#31363d;}</style></defs><path class="a" d="M181.45,123.592a1,1,0,0,0-.216-.323l-5.793-5.793a1,1,0,0,0-.708-.294h-5.8a2.672,2.672,0,0,0-2.652,2.656v.655h-.738a2.671,2.671,0,0,0-2.651,2.656V136.4a2.669,2.669,0,0,0,2.655,2.652h9.936a2.671,2.671,0,0,0,2.653-2.655v-.656h.738a2.67,2.67,0,0,0,2.651-2.655v-9.105A1.006,1.006,0,0,0,181.45,123.592Zm-5.717-3,2.38,2.381h-2.38Zm.4,15.793a.663.663,0,0,1-.656.659h-9.93a.662.662,0,0,1-.658-.655v-13.24a.664.664,0,0,1,.655-.66h.734v10.593a2.671,2.671,0,0,0,2.655,2.651h7.2Zm3.389-3.311a.665.665,0,0,1-.655.659h-9.93a.665.665,0,0,1-.659-.655v-13.24a.665.665,0,0,1,.655-.66h4.795v4.795a1,1,0,0,0,1,1h4.794Z" transform="translate(-162.894 -117.182)"/></svg>