<svg xmlns="http://www.w3.org/2000/svg" width="22.126" height="20.116" viewBox="0 0 22.126 20.116"><defs><style>.a{fill:#31363d;}</style></defs><path class="a" d="M322.719,294.692a10.056,10.056,0,0,0-16.57-3.8l-2.984,2.8v-3.726a1,1,0,0,0-2,0v6.038a.913.913,0,0,0,.028.138.647.647,0,0,0,.166.422.882.882,0,0,0,.077.124l.013.009a.97.97,0,0,0,.216.153,1.037,1.037,0,0,0,.1.07,1.052,1.052,0,0,0,.152.034,1.015,1.015,0,0,0,.229.047l.016,0H308.2a1,1,0,0,0,0-2H304.69l2.851-2.679a8.056,8.056,0,1,1-1.907,8.379,1,1,0,1,0-1.886.664,10.057,10.057,0,1,0,18.971-6.684Z" transform="translate(-301.165 -287.976)"/></svg>