<svg xmlns="http://www.w3.org/2000/svg" width="22" height="16" viewBox="0 0 22 16"><defs><style>.a{fill:#31363d;}</style></defs><path class="a" d="M215.415,501.035a1,1,0,0,0-1.053.11l-9,7a1,1,0,0,0,0,1.578l9,7a1,1,0,0,0,1.614-.789v-14A1,1,0,0,0,215.415,501.035Zm-1.439,12.854-6.372-4.955,6.372-4.955Z" transform="translate(-204.976 -500.934)"/><path class="a" d="M225.976,516.934a1,1,0,0,0,1-1v-14a1,1,0,0,0-1.614-.789l-9,7a1,1,0,0,0,0,1.578l9,7A1,1,0,0,0,225.976,516.934Zm-1-3.045-6.372-4.955,6.372-4.955Z" transform="translate(-204.976 -500.934)"/></svg>