<svg xmlns="http://www.w3.org/2000/svg" width="27.09" height="27.089" viewBox="0 0 27.09 27.089"><defs><style>.a{fill:#31363d;}</style></defs><path class="a" d="M425.167,281.566l-18.485,18.485a.7.7,0,0,0,0,.989l7.212,7.206a.7.7,0,0,0,.989,0l18.479-18.484a.7.7,0,0,0,0-.989l-7.206-7.207A.7.7,0,0,0,425.167,281.566Zm-15.313,18.17,1.642,1.643a.865.865,0,0,0,1.224,0l.2-.2a.867.867,0,0,0,0-1.225l-1.643-1.642.847-.85.515.515a.865.865,0,0,0,1.225,0l.2-.2a.867.867,0,0,0,0-1.225l-.514-.512.826-.827,1.643,1.641a.866.866,0,0,0,1.224,0l.2-.2a.865.865,0,0,0,0-1.225l-1.642-1.639.81-.809.515.515a.865.865,0,0,0,1.225,0l.2-.2a.865.865,0,0,0,0-1.223l-.517-.516.828-.828,1.643,1.643a.864.864,0,0,0,1.223,0l.206-.2a.866.866,0,0,0,0-1.224l-1.641-1.641.844-.845.512.514a.866.866,0,0,0,1.225,0l.2-.2a.865.865,0,0,0,0-1.224l-.516-.515.827-.828,1.645,1.644a.866.866,0,0,0,1.224,0l.205-.205a.866.866,0,0,0,0-1.224l-1.642-1.642.828-.829,4.844,4.845a.7.7,0,0,1,0,.989l-15.627,15.627a.7.7,0,0,1-.989,0l-4.845-4.843Z" transform="translate(-406.477 -281.361)"/></svg>