<svg xmlns="http://www.w3.org/2000/svg" width="21.9" height="21.9" viewBox="0 0 21.9 21.9"><defs><style>.a{fill:#31363d;}</style></defs><path class="a" d="M21.6,5.8,16.1.3a1.08,1.08,0,0,0-.7-.3H3.2A3.159,3.159,0,0,0,0,3.2V18.7a3.159,3.159,0,0,0,3.2,3.2H18.7a3.159,3.159,0,0,0,3.2-3.2V6.5A1.08,1.08,0,0,0,21.6,5.8ZM15.5,19.9H6.4V13.1h9.1Zm4.4-1.2a1.155,1.155,0,0,1-1.2,1.2H17.5V12.1a.945.945,0,0,0-1-1H5.4a.945.945,0,0,0-1,1v7.8H3.2A1.155,1.155,0,0,1,2,18.7V3.2A1.155,1.155,0,0,1,3.2,2H4.4V6.5a.945.945,0,0,0,1,1h8.8a.945.945,0,0,0,1-1,.945.945,0,0,0-1-1H6.4V2h8.5l4.9,4.9V18.7Z"/></svg>