<svg xmlns="http://www.w3.org/2000/svg" width="18.447" height="25.833" viewBox="0 0 18.447 25.833"><defs><style>.a{fill:#31363d;}</style></defs><path class="a" d="M601.292,295.626v-4.6a3.075,3.075,0,0,1,6.15,0v4.6a5.535,5.535,0,1,0-6.15,0Zm12.1,5.7-5.578-2.78a1.74,1.74,0,0,0-.664-.135h-.936v-7.38a1.845,1.845,0,1,0-3.69,0v13.21l-4.221-.885a2.155,2.155,0,0,0-.3-.037,1.375,1.375,0,0,0-.972.406l-.972.984,6.076,6.076a1.854,1.854,0,0,0,1.3.541h8.352a1.792,1.792,0,0,0,1.771-1.574l.923-6.482a1.768,1.768,0,0,0-1.1-1.943Z" transform="translate(-596.059 -285.488)"/></svg>