<svg xmlns="http://www.w3.org/2000/svg" width="24" height="24" viewBox="0 0 24 24"><defs><style>.a{fill:#31363d;}</style></defs><g transform="translate(-87.25 -115.708)"><path class="a" d="M99.25,131.708a4,4,0,1,1,4-4A4,4,0,0,1,99.25,131.708Zm0-6a2,2,0,1,0,2,2A2,2,0,0,0,99.25,125.708Z"/><path class="a" d="M99.33,139.708a3,3,0,0,1-3-3,.709.709,0,0,0-.122-.43.624.624,0,0,0-.3-.229.752.752,0,0,0-.442-.067.607.607,0,0,0-.331.165,3.013,3.013,0,0,1-1.042.709,2.917,2.917,0,0,1-2.305-.01,2.875,2.875,0,0,1-.96-.645,3.06,3.06,0,0,1-.644-.963,3.006,3.006,0,0,1,0-2.3,3.077,3.077,0,0,1,.644-.967.758.758,0,0,0,.234-.4.655.655,0,0,0-.649-.776H90.25a3,3,0,1,1,0-6,.679.679,0,0,0,.663-.429.716.716,0,0,0,.067-.431.671.671,0,0,0-.18-.345,3.188,3.188,0,0,1-.695-1.015,3.015,3.015,0,0,1,0-2.3,3.077,3.077,0,0,1,.644-.967,3.015,3.015,0,0,1,3.295-.645,2.844,2.844,0,0,1,.958.642.652.652,0,0,0,.372.217.67.67,0,0,0,.4-.04.969.969,0,0,1,.189-.061.678.678,0,0,0,.182-.184.631.631,0,0,0,.107-.349v-.169a3,3,0,0,1,6,0,.729.729,0,0,0,.105.435.668.668,0,0,0,.675.292.6.6,0,0,0,.334-.165,3,3,0,0,1,1.044-.71,2.9,2.9,0,0,1,2.3.012,2.838,2.838,0,0,1,.959.642,3.088,3.088,0,0,1,.645.965,3.006,3.006,0,0,1,0,2.3,3.079,3.079,0,0,1-.645.968.75.75,0,0,0-.233.4.655.655,0,0,0,.046.374.933.933,0,0,1,.064.2.639.639,0,0,0,.18.179.688.688,0,0,0,.358.1h.163a3,3,0,1,1,0,6,.79.79,0,0,0-.45.112.635.635,0,0,0-.226.28c-.009.02-.018.041-.028.06a.649.649,0,0,0-.026.33.68.68,0,0,0,.18.344,3.172,3.172,0,0,1,.695,1.015,3,3,0,0,1-.642,3.269,3.007,3.007,0,0,1-4.254,0,.668.668,0,0,0-1.06.067.624.624,0,0,0-.109.352v.168A3,3,0,0,1,99.33,139.708Zm-3.742-5.737a2.672,2.672,0,0,1,1.059.219,2.564,2.564,0,0,1,1.192.931,2.651,2.651,0,0,1,.491,1.472v.115a1,1,0,0,0,2,0v-.17a2.619,2.619,0,0,1,.443-1.457,2.651,2.651,0,0,1,2.7-1.146,2.565,2.565,0,0,1,1.384.714,1.092,1.092,0,0,0,.376.272.945.945,0,0,0,.76.011.967.967,0,0,0,.338-.217,1.086,1.086,0,0,0,.224-.336,1,1,0,0,0,0-.757,1.1,1.1,0,0,0-.224-.334,2.749,2.749,0,0,1-.774-1.436,2.652,2.652,0,0,1,.182-1.547.824.824,0,0,1,.042-.084,2.63,2.63,0,0,1,.93-1.075,2.708,2.708,0,0,1,1.441-.438h.1a1,1,0,1,0,0-2h-.174a2.7,2.7,0,0,1-1.441-.429,2.658,2.658,0,0,1-.986-1.18,1.03,1.03,0,0,1-.071-.261,2.645,2.645,0,0,1-.106-1.347,2.68,2.68,0,0,1,.708-1.377l.073-.073a1.068,1.068,0,0,0,.22-.333.988.988,0,0,0,0-.755,1.073,1.073,0,0,0-.224-.333.89.89,0,0,0-.307-.2.932.932,0,0,0-.761-.012.972.972,0,0,0-.339.217,2.666,2.666,0,0,1-4.151-.373,2.616,2.616,0,0,1-.439-1.449,1.025,1.025,0,0,0-1-1.092,1,1,0,0,0-1,1v.17a2.625,2.625,0,0,1-.442,1.456,2.663,2.663,0,0,1-1.159.971.994.994,0,0,1-.274.075,2.644,2.644,0,0,1-1.347.1,2.565,2.565,0,0,1-1.383-.713,1.065,1.065,0,0,0-.374-.271.934.934,0,0,0-.762-.012.972.972,0,0,0-.339.217,1.084,1.084,0,0,0-.223.336,1,1,0,0,0,0,.756,1.047,1.047,0,0,0,.224.332,2.764,2.764,0,0,1,.774,1.439,2.764,2.764,0,0,1-2.58,3.223H90.25a1,1,0,1,0,0,2h.174a2.654,2.654,0,0,1,2.6,3.131,2.687,2.687,0,0,1-.709,1.384l-.076.075a1.081,1.081,0,0,0-.217.33.99.99,0,0,0,0,.756,1.073,1.073,0,0,0,.224.333.894.894,0,0,0,.308.2.943.943,0,0,0,.761.012.971.971,0,0,0,.337-.217,2.661,2.661,0,0,1,1.464-.783A2.593,2.593,0,0,1,95.588,133.971Z"/></g></svg>