<svg xmlns="http://www.w3.org/2000/svg" width="24" height="18" viewBox="0 0 24 18"><defs><style>.a{fill:#31363d;}</style></defs><path class="a" d="M558.055,79.868c7.531,0,11.719-8.2,11.894-8.553a1,1,0,0,0,0-.9c-.175-.349-4.363-8.552-11.894-8.552s-11.72,8.2-11.9,8.552a1.006,1.006,0,0,0,0,.9C546.335,71.664,550.523,79.868,558.055,79.868Zm0-16c5.377,0,8.921,5.392,9.858,7-.934,1.61-4.465,7-9.858,7-5.377,0-8.921-5.393-9.859-7C549.131,69.256,552.661,63.868,558.055,63.868Z" transform="translate(-546.055 -61.868)"/><path class="a" d="M558.055,74.868a4,4,0,1,0-4-4A4,4,0,0,0,558.055,74.868Zm0-6a2,2,0,1,1-2,2A2,2,0,0,1,558.055,68.868Z" transform="translate(-546.055 -61.868)"/></svg>