<svg xmlns="http://www.w3.org/2000/svg" width="20" height="19.999" viewBox="0 0 20 19.999"><defs><style>.a{fill:#599d32;}</style></defs><path class="a" d="M768,308.832H768a10,10,0,0,1,.006-20h.007a9.932,9.932,0,0,1,4.064.864,1.111,1.111,0,0,1-.9,2.03,7.733,7.733,0,0,0-3.161-.672H768a7.777,7.777,0,0,0,0,15.555H768a7.779,7.779,0,0,0,7.778-7.773v-.819a1.111,1.111,0,1,1,2.222,0v.82a10,10,0,0,1-10,9.995Z" transform="translate(-758.003 -288.833)"/><g transform="translate(6.6 2.602)"><path class="a" d="M767,300.443a1,1,0,0,1-.707-.293l-2.4-2.4a1,1,0,1,1,1.414-1.414L767,298.029l7.293-7.3a1,1,0,1,1,1.414,1.413l-8,8.008A1,1,0,0,1,767,300.443Z" transform="translate(-763.603 -290.435)"/></g></svg>