<svg xmlns="http://www.w3.org/2000/svg" width="22.9" height="23.713" viewBox="0 0 22.9 23.713"><defs><style>.a{fill:#31363d;}</style></defs><g transform="translate(-5.7 -4.194)"><path class="a" d="M21.3,10.9H10.9a.945.945,0,0,1-1-1,.945.945,0,0,1,1-1H21.3a.945.945,0,0,1,1,1A1,1,0,0,1,21.3,10.9Z"/><path class="a" d="M21.3,15.4H10.9a1,1,0,0,1,0-2H21.3a.945.945,0,0,1,1,1A1,1,0,0,1,21.3,15.4Z"/><path class="a" d="M15.7,19.8H10.9a1,1,0,0,1,0-2h4.8a.945.945,0,0,1,1,1A1,1,0,0,1,15.7,19.8Z"/></g><g transform="translate(-5.7 -4.194)"><path class="a" d="M21.2,24.5h0a1.136,1.136,0,0,1-.8-.3L18,21.4a.992.992,0,1,1,1.5-1.3l1.7,2,5.7-5.8a.99.99,0,0,1,1.4,1.4l-6.4,6.6A1.445,1.445,0,0,1,21.2,24.5Z"/></g><g transform="translate(-5.7 -4.194)"><path class="a" d="M8.2,27.8a2.54,2.54,0,0,1-2.5-2.5V6.7A2.578,2.578,0,0,1,8.4,4.2H24.3a2.44,2.44,0,0,1,2.6,2.5v8.1a1,1,0,0,1-2,0v-8a.56.56,0,0,0-.6-.5H8.4c-.4,0-.6.2-.6.5V25.4a.56.56,0,0,0,.6.5H24.3a.752.752,0,0,0,.7-.5V23a1,1,0,0,1,2,0v2.4a2.578,2.578,0,0,1-2.7,2.5H8.5Z"/></g></svg>