<svg xmlns="http://www.w3.org/2000/svg" width="25.9" height="17.606" viewBox="0 0 25.9 17.606"><defs><style>.a{fill:#31363d;}</style></defs><path class="a" d="M6.7,9c1.061-1.3,3.005-1.9,6.01-1.9a9.174,9.174,0,0,1,6.275,2,1.159,1.159,0,0,0,.53.2.777.777,0,0,0,.707-.4,1.063,1.063,0,0,0-.177-1.4C18.81,6.4,16.6,5.1,12.711,5.1c-3.535,0-5.922.8-7.336,2.5A1.178,1.178,0,0,0,5.464,9,.787.787,0,0,0,6.7,9Z" transform="translate(0 -0.657)"/><path class="a" d="M25.9,6.375a4.928,4.928,0,0,0-1.764-3.323C21.908.9,18.009-.09,12.625,0S3.435,1.257,1.392,3.322A4.887,4.887,0,0,0,0,6.375v5.119a3.039,3.039,0,0,0,1.114,2.245C2.971,15.624,7.334,17.6,12.625,17.6h.093c5.663,0,10.119-1.886,12.068-3.772A3.243,3.243,0,0,0,25.9,11.583h0C25.9,10.955,25.9,9.608,25.9,6.375ZM2.878,4.489c1.114-1.167,3.806-2.6,9.84-2.694h.65c10.026,0,10.583,4.31,10.676,4.67v.09c0,1.706-3.713,4.67-11.047,4.67-7.519,0-10.861-3.233-11.14-4.58V6.375h0A2.905,2.905,0,0,1,2.878,4.489Zm21.166,6.735h0v.359a1.59,1.59,0,0,1-.557.9c-1.578,1.616-5.663,3.233-10.768,3.233h-.093c-4.549,0-8.541-1.706-10.119-3.323-.557-.359-.65-.718-.65-.9V9.608C3.9,11.4,7.705,12.93,13,12.93c5.477,0,9.1-1.437,11.047-3.233Z" transform="translate(0 0.006)"/></svg>