<svg xmlns="http://www.w3.org/2000/svg" width="25.7" height="24.003" viewBox="0 0 25.7 24.003"><defs><style>.a{fill:#31363d;}</style></defs><path class="a" d="M6.7,21.8a4.18,4.18,0,0,0,3.3-7l-.6-.7V5A2.7,2.7,0,1,0,4,5H4v9.1l-.6.7a4.106,4.106,0,0,0-1.1,2.8,4.336,4.336,0,0,0,4.4,4.2m0,2.2A6.6,6.6,0,0,1,0,17.5a6.31,6.31,0,0,1,1.7-4.3V5a5,5,0,1,1,10,0v8.2a6.31,6.31,0,0,1,1.7,4.3A6.471,6.471,0,0,1,6.7,24Z"/><path class="a" d="M7.7,14.8v-6a.945.945,0,0,0-1-1,.945.945,0,0,0-1,1v5.9a2.8,2.8,0,0,0-1.9,2.6,2.862,2.862,0,0,0,2.8,2.8,2.862,2.862,0,0,0,2.8-2.8A2.954,2.954,0,0,0,7.7,14.8Z"/><path class="a" d="M24.1,9.5a.876.876,0,0,0-1,.5,2.55,2.55,0,0,1-.8,1.2,3.445,3.445,0,0,1-2.3,1h0a3.25,3.25,0,0,1-2.4-1l-.7-.7h.8a.789.789,0,0,0,.8-.8.709.709,0,0,0-.8-.7h-3l-.1.1-.1.1h0a.1.1,0,0,1-.1.1l-.1.1v3a.713.713,0,0,0,.8.7.713.713,0,0,0,.8-.7v-1l.8.8a4.762,4.762,0,0,0,3.4,1.4h0a4.762,4.762,0,0,0,3.4-1.4,4.185,4.185,0,0,0,1.1-1.8A.8.8,0,0,0,24.1,9.5Z"/><path class="a" d="M25.6,8.2h0a.6.6,0,0,0,.1-.4V5.2a.789.789,0,0,0-.8-.8.736.736,0,0,0-.8.8v1l-.8-.8a4.185,4.185,0,0,0-1.8-1.1,4.714,4.714,0,0,0-6.1,2.9.791.791,0,0,0,1.5.5,3.307,3.307,0,0,1,4.2-2,3.528,3.528,0,0,1,1.3.8l.6.7h-.8a.789.789,0,0,0-.8.8.736.736,0,0,0,.8.8h2.7c.2,0,.3-.1.5-.2h0C25.5,8.4,25.6,8.3,25.6,8.2Z"/></svg>