<svg xmlns="http://www.w3.org/2000/svg" width="23.7" height="24.003" viewBox="0 0 23.7 24.003"><defs><style>.a{fill:#236edf;}</style></defs><path class="a" d="M6.7,21.8a4.18,4.18,0,0,0,3.3-7l-.6-.7V5A2.7,2.7,0,1,0,4,5H4v9.1l-.6.7a4.106,4.106,0,0,0-1.1,2.8,4.336,4.336,0,0,0,4.4,4.2m0,2.2A6.6,6.6,0,0,1,0,17.5a6.31,6.31,0,0,1,1.7-4.3V5a5,5,0,1,1,10,0v8.2a6.31,6.31,0,0,1,1.7,4.3A6.471,6.471,0,0,1,6.7,24Z"/><path class="a" d="M7.7,14.8v-6a.945.945,0,0,0-1-1,.945.945,0,0,0-1,1v5.9a2.8,2.8,0,0,0-1.9,2.6,2.862,2.862,0,0,0,2.8,2.8,2.862,2.862,0,0,0,2.8-2.8A2.954,2.954,0,0,0,7.7,14.8Z"/><path class="a" d="M17.4,13h0a.908.908,0,0,1-.7-.3l-2.4-2.4a.99.99,0,0,1,1.4-1.4l1.7,1.7L22,6a.99.99,0,1,1,1.4,1.4l-5.3,5.3A.908.908,0,0,1,17.4,13Z"/></svg>