<svg xmlns="http://www.w3.org/2000/svg" width="20.7" height="24.003" viewBox="0 0 20.7 24.003"><defs><style>.a{fill:#236edf;}</style></defs><path class="a" d="M6.7,21.8a4.18,4.18,0,0,0,3.3-7l-.6-.7V5A2.7,2.7,0,1,0,4,5H4v9.1l-.6.7a4.106,4.106,0,0,0-1.1,2.8,4.336,4.336,0,0,0,4.4,4.2m0,2.2A6.6,6.6,0,0,1,0,17.5a6.31,6.31,0,0,1,1.7-4.3V5a5,5,0,1,1,10,0v8.2a6.31,6.31,0,0,1,1.7,4.3A6.471,6.471,0,0,1,6.7,24Z"/><path class="a" d="M7.7,14.8v-6a.945.945,0,0,0-1-1,.945.945,0,0,0-1,1v5.9a2.8,2.8,0,0,0-1.9,2.6,2.862,2.862,0,0,0,2.8,2.8,2.862,2.862,0,0,0,2.8-2.8A2.954,2.954,0,0,0,7.7,14.8Z"/><path class="a" d="M19.7,5.9H15.1a.945.945,0,0,1-1-1,.945.945,0,0,1,1-1h4.6a.945.945,0,0,1,1,1A.945.945,0,0,1,19.7,5.9Z"/><path class="a" d="M19.7,9.2H15.1a.945.945,0,0,1-1-1,.945.945,0,0,1,1-1h4.6a.945.945,0,0,1,1,1A.945.945,0,0,1,19.7,9.2Z"/><path class="a" d="M19.7,12.5H15.1a1,1,0,0,1,0-2h4.6a1,1,0,0,1,0,2Z"/></svg>