<svg xmlns="http://www.w3.org/2000/svg" width="11.382" height="24.01" viewBox="0 0 11.382 24.01"><defs><style>.a{fill:#d5d9e0;}</style></defs><g transform="translate(-6.308)"><path class="a" d="M8.78,0a.85.85,0,0,0-.84.84h0a.84.84,0,0,0,.84.84h.8V4.54h1.57V1.67h1.7V4.55h1.57V1.69h.79a.85.85,0,0,0,.85-.84A.85.85,0,0,0,15.22,0Z"/><path class="a" d="M12.68,22.81a.64.64,0,0,0,.19-.45V18.93a2.42,2.42,0,0,0,.75-.18h.08a1,1,0,0,0,.58-.89v-1a5.73,5.73,0,0,0,1.4-.94,1.66,1.66,0,0,0,.49-1.17v-7h.52a1,1,0,0,0,1-.85,1,1,0,0,0-.85-1H7.31a1,1,0,0,0-1,.85.94.94,0,0,0,.85,1h.66v7a1.56,1.56,0,0,0,.49,1.17,5.13,5.13,0,0,0,1.4.94v1a1,1,0,0,0,.57.9h.08a2.73,2.73,0,0,0,.75.17v4.82a.26.26,0,0,0,.26.26.27.27,0,0,0,.19-.08ZM9.39,8.36h2.19a.61.61,0,1,1,0,1.21H9.39Zm0,2.43h2.19a.61.61,0,1,1,0,1.21H9.39Zm0,2.42h2.19a.61.61,0,1,1,0,1.21H9.39Z"/></g></svg>