<svg xmlns="http://www.w3.org/2000/svg" width="9.74" height="24" viewBox="0 0 9.74 24"><defs><style>.a{fill:#d5d9e0;}</style></defs><g transform="translate(-7.13)"><path class="a" d="M12,23l-1.2-5.09a.36.36,0,0,1,.35-.44h1.7a.36.36,0,0,1,.35.44L12.05,23A.05.05,0,0,1,12,23Zm2.92-7.84H9.13a1.52,1.52,0,0,1-1.52-1.51V2A1.52,1.52,0,0,1,9.13.5h5.74A1.52,1.52,0,0,1,16.39,2V13.6a1.52,1.52,0,0,1-1.52,1.53ZM12,2.45a1.27,1.27,0,0,0-1.27,1.27v8.19a1.27,1.27,0,1,0,2.54,0V3.72A1.27,1.27,0,0,0,12,2.45Z"/><path class="a" d="M12,21l.69-3H11.31L12,21m2.92-6.34a1,1,0,0,0,1-1V2a1,1,0,0,0-1-1H9.13a1,1,0,0,0-1,1V13.6a1,1,0,0,0,1,1h5.79M12,2a1.76,1.76,0,0,1,1.76,1.76v8a1.84,1.84,0,0,1-1.5,1.87,1.76,1.76,0,0,1-2-1.73V3.72A1.76,1.76,0,0,1,12,2m0,22a.4.4,0,0,1-.38-.3l-1.43-6.28a.36.36,0,0,1,.35-.44h2.92a.36.36,0,0,1,.35.44L12.38,23.7A.4.4,0,0,1,12,24Zm2.87-8.38H9.13a2,2,0,0,1-2-2V2a2,2,0,0,1,2-2h5.74a2,2,0,0,1,2,2V13.6a2,2,0,0,1-2,2.02ZM12,2.94a.78.78,0,0,0-.78.78v8.19a.78.78,0,1,0,1.56,0V3.72A.78.78,0,0,0,12,2.94Z"/></g></svg>