<svg xmlns="http://www.w3.org/2000/svg" width="15.468" height="24" viewBox="0 0 15.468 24"><defs><style>.a{fill:#d5d9e0;}</style></defs><g transform="translate(-4.27)"><path class="a" d="M12,23.32,4.9,16.21v-.69a1.49,1.49,0,0,0,2.76-.8V11.48a1.54,1.54,0,0,0-.43-1.06H11a1.51,1.51,0,0,0-.44,1.06v3.24a1.5,1.5,0,1,0,3,0V11.48a1.51,1.51,0,0,0-.44-1.06h3.62a1.51,1.51,0,0,0-.44,1.06v3.24a1.5,1.5,0,0,0,2.83.68v.81ZM15.74,7.18H8.26V.87A.25.25,0,0,1,8.51.62h7a.25.25,0,0,1,.24.25Z"/><path class="a" d="M12,22.44l5.59-5.6a2.12,2.12,0,0,1-1.94-2.12V11.48a2,2,0,0,1,0-.43H14.11a2,2,0,0,1,0,.43v3.24a2.12,2.12,0,1,1-4.24,0V11.48a3,3,0,0,1,0-.43H8.24a2,2,0,0,1,0,.43v3.24A2.12,2.12,0,0,1,6.4,16.83L12,22.44M15.12,6.55V1.25H8.88v5.3h6.24M12,24a.51.51,0,0,1-.35-.16L4.43,16.62a.47.47,0,0,1-.16-.31v-6a.57.57,0,0,1,.44-.55H19.29a.56.56,0,0,1,.44.55V16.2a.58.58,0,0,1,0,.19h0a.53.53,0,0,1-.1.14h0l-7.18,7.19A.52.52,0,0,1,12,24Zm5.77-13.39a.87.87,0,0,0-.87.87v3.24a.87.87,0,0,0,1.74,0V11.48A.87.87,0,0,0,17.77,10.61Zm-5.74,0a.87.87,0,0,0-.87.87v3.24a.87.87,0,0,0,1.74,0V11.48a.87.87,0,0,0-.9-.87Zm-5.86,0a.88.88,0,0,0-.88.87v3.24a.88.88,0,1,0,1.75,0V11.48A.87.87,0,0,0,6.17,10.61ZM16.36,7.8H7.63V.87A.88.88,0,0,1,8.51,0h7a.87.87,0,0,1,.87.87V7.79h0Z"/></g></svg>