<svg xmlns="http://www.w3.org/2000/svg" width="11.72" height="23.991" viewBox="0 0 11.72 23.991"><defs><style>.a{fill:#91b2e4;}</style></defs><g transform="translate(-6.14 -0.01)"><path class="a" d="M12,22.85a4.62,4.62,0,0,1-4.7-4.52,4.37,4.37,0,0,1,1.39-3.21l.36-.34V4.12a2.95,2.95,0,1,1,5.9,0V14.78l.36.34a4.37,4.37,0,0,1,1.39,3.21A4.62,4.62,0,0,1,12,22.85Zm-2.29-8a4.087,4.087,0,0,0,2.13,7.52h.07a4.08,4.08,0,0,0,4.09-4h0A4.15,4.15,0,0,0,14.33,15V9.24a2.31,2.31,0,0,0-4.62,0Z"/><path class="a" d="M10.2,6.3A3.42,3.42,0,0,1,12,5.78a3.38,3.38,0,0,1,1.78.5V4.12a1.8,1.8,0,0,0-3.6,0V6.3M12,24a5.77,5.77,0,0,1-5.86-5.67,5.56,5.56,0,0,1,1.75-4V4.12a4.11,4.11,0,1,1,8.22,0V14.28a5.56,5.56,0,0,1,1.75,4A5.77,5.77,0,0,1,12,24ZM12,8.09a1.16,1.16,0,0,0-1.16,1.15v6.27A3,3,0,0,0,9,18.2a2.93,2.93,0,0,0,2.88,3h.05a2.93,2.93,0,0,0,1.26-5.58V9.24A1.16,1.16,0,0,0,12,8.09Z"/></g></svg>