<svg xmlns="http://www.w3.org/2000/svg" width="20.229" height="20.229" viewBox="0 0 20.229 20.229"><defs><style>.a{fill:#31363d;}</style></defs><path class="a" d="M397.786,298.477a1.005,1.005,0,0,0-.215-1.093l-3.014-3.013a1,1,0,1,0-1.414,1.414l1.307,1.307h-5.7v-5.7l1.307,1.307a1,1,0,0,0,1.414-1.414l-3.014-3.014a1,1,0,0,0-1.089-.216,1.01,1.01,0,0,0-.325.216l-3.014,3.014a1,1,0,1,0,1.414,1.414l1.307-1.307v5.7h-5.7l1.307-1.307a1,1,0,0,0-1.414-1.414l-3.013,3.013a1,1,0,0,0,0,1.415l3.013,3.014a1,1,0,0,0,1.414-1.415l-1.307-1.306h5.7v5.7l-1.307-1.307a1,1,0,1,0-1.414,1.414l3.013,3.013a1,1,0,0,0,1.416,0l3.013-3.013a1,1,0,0,0-1.414-1.414l-1.307,1.307v-5.7h5.7l-1.307,1.306a1,1,0,0,0,1.414,1.415l3.014-3.014A.979.979,0,0,0,397.786,298.477Z" transform="translate(-377.635 -287.978)"/></svg>