<svg xmlns="http://www.w3.org/2000/svg" width="16" height="24" viewBox="0 0 16 24"><defs><style>.a{fill:#31363d;}</style></defs><path class="a" d="M476.6,296.675v8a4,4,0,0,0,8,0v-8a4,4,0,1,0-8,0Zm6,0v8a2,2,0,0,1-4,0v-8a2,2,0,1,1,4,0Z" transform="translate(-472.603 -292.675)"/><path class="a" d="M472.6,302.675v2a8.006,8.006,0,0,0,7,7.93v2.07h-3a1,1,0,0,0,0,2h8a1,1,0,0,0,0-2h-3v-2.07a8.007,8.007,0,0,0,7-7.93v-2a1,1,0,1,0-2,0v2a6,6,0,0,1-12,0v-2a1,1,0,1,0-2,0Z" transform="translate(-472.603 -292.675)"/></svg>