<svg xmlns="http://www.w3.org/2000/svg" width="24" height="20.001" viewBox="0 0 24 20.001"><defs><style>.a{fill:#31363d;}</style></defs><path class="a" d="M94.339,300.149a1,1,0,0,0-1.276.609,8.065,8.065,0,0,1-1.887,2.99,7.946,7.946,0,0,1-5.655,2.342h0a7.971,7.971,0,0,1-5.679-2.366l-2.8-2.632h3.476a1,1,0,0,0,0-2h-6l-.015,0a1,1,0,0,0-.24.048,1.089,1.089,0,0,0-.142.032.954.954,0,0,0-.1.069,1,1,0,0,0-.219.155l-.011.008a.9.9,0,0,0-.071.114.961.961,0,0,0-.127.205,58.235,58.235,0,0,1-.074.366v6a1,1,0,0,0,2,0V302.4l2.933,2.756a9.937,9.937,0,0,0,7.071,2.931h0a9.933,9.933,0,0,0,7.069-2.928,10.07,10.07,0,0,0,2.358-3.736A1,1,0,0,0,94.339,300.149Z" transform="translate(-73.515 -288.089)"/><path class="a" d="M97.487,296.23a.912.912,0,0,0,.028-.138v-6a1,1,0,0,0-2,0v3.688l-2.932-2.755a10.075,10.075,0,0,0-3.737-2.358,10,10,0,0,0-12.763,6.091,1,1,0,1,0,1.885.667,8,8,0,0,1,10.211-4.872,8.073,8.073,0,0,1,3.011,1.908l2.8,2.631H90.515a1,1,0,0,0,0,2h6a1.01,1.01,0,0,0,.39-.079l.009-.006a1.008,1.008,0,0,0,.317-.222l.013-.009a.883.883,0,0,0,.077-.124.959.959,0,0,0,.12-.193A.99.99,0,0,0,97.487,296.23Z" transform="translate(-73.515 -288.089)"/></svg>