<svg xmlns="http://www.w3.org/2000/svg" width="20.779" height="17.316" viewBox="0 0 20.779 17.316"><defs><style>.a{fill:#31363d;}</style></defs><path class="a" d="M382.991,690.606v1.732a.866.866,0,1,0,1.732,0v-1.732a4.334,4.334,0,0,0-4.329-4.329h-6.926a4.334,4.334,0,0,0-4.329,4.329v1.732a.866.866,0,1,0,1.732,0v-1.732a2.6,2.6,0,0,1,2.6-2.6h6.926A2.6,2.6,0,0,1,382.991,690.606Z" transform="translate(-369.138 -675.887)"/><path class="a" d="M377.467,682.935a4.329,4.329,0,1,0-4.329-4.329A4.334,4.334,0,0,0,377.467,682.935Zm0-6.926a2.6,2.6,0,1,1-2.6,2.6A2.6,2.6,0,0,1,377.467,676.009Z" transform="translate(-369.675 -674.277)"/><path class="a" d="M391.6,693.221a.866.866,0,0,0,.866-.866v-1.732a4.33,4.33,0,0,0-3.247-4.188.866.866,0,1,0-.433,1.676,2.6,2.6,0,0,1,1.948,2.513v1.732A.865.865,0,0,0,391.6,693.221Z" transform="translate(-371.688 -675.905)"/><path class="a" d="M385.218,674.434a.866.866,0,0,0-.429,1.678,2.6,2.6,0,0,1,0,5.032.866.866,0,0,0,.214,1.7.88.88,0,0,0,.216-.027,4.329,4.329,0,0,0,0-8.388Z" transform="translate(-371.151 -674.294)"/></svg>