<svg xmlns="http://www.w3.org/2000/svg" width="34" height="34" viewBox="0 0 34 34"><defs><style>.a{fill:#d5d9e0;}.b{fill:#31363d;}</style></defs><g transform="translate(525 2406)"><circle class="a" cx="17" cy="17" r="17" transform="translate(-525 -2406)"/><path class="a" d="M-508-2372a16.986,16.986,0,0,1-17-17,16.986,16.986,0,0,1,17-17,16.986,16.986,0,0,1,17,17A16.986,16.986,0,0,1-508-2372Zm0-33a16.047,16.047,0,0,0-16,16,16.047,16.047,0,0,0,16,16,16.047,16.047,0,0,0,16-16A16.047,16.047,0,0,0-508-2405Z"/></g><g transform="translate(-447.561 -1234.412)"><path class="b" d="M349.478,689.821v1.417a.709.709,0,0,0,1.417,0v-1.417a3.548,3.548,0,0,0-3.544-3.544h-5.67a3.548,3.548,0,0,0-3.544,3.544v1.417a.709.709,0,0,0,1.417,0v-1.417a2.128,2.128,0,0,1,2.126-2.126h5.67A2.129,2.129,0,0,1,349.478,689.821Z" transform="translate(120.422 566.64)"/><path class="b" d="M342.138,677.821a3.544,3.544,0,1,0,3.544-3.544A3.548,3.548,0,0,0,342.138,677.821Zm5.67,0a2.126,2.126,0,1,1-2.126-2.126A2.128,2.128,0,0,1,347.808,677.821Z" transform="translate(119.257 570.135)"/></g></svg>