<svg xmlns="http://www.w3.org/2000/svg" width="24" height="24" viewBox="0 0 24 24"><defs><style>.a{fill:#31363d;}.b{fill:none;}</style></defs><g transform="translate(-176)"><path class="a" d="M187.8,8.7v4.8a3.6,3.6,0,0,1-.2,1.1,1.555,1.555,0,0,1-.6.8,1.934,1.934,0,0,1-.9.5,4.253,4.253,0,0,1-1.1.2,3.6,3.6,0,0,1-1.1-.2,4.053,4.053,0,0,1-.9-.5,2.407,2.407,0,0,1-.6-.8,3.6,3.6,0,0,1-.2-1.1V8.7h1.5v4.8a1.327,1.327,0,0,0,.3,1,1.327,1.327,0,0,0,1,.3,1.689,1.689,0,0,0,1-.3,1.493,1.493,0,0,0,.3-1V8.7Z"/><path class="a" d="M191.6,14.2l1.7-5.5H195L192.5,16h-1.6l-2.5-7.3h1.7Z"/></g><g transform="translate(-176)"><circle class="b" cx="12" cy="12" r="12" transform="translate(176)"/><path class="a" d="M188,23.9A11.9,11.9,0,1,1,199.9,12,11.928,11.928,0,0,1,188,23.9Zm0-21.8a9.9,9.9,0,1,0,9.9,9.9A9.923,9.923,0,0,0,188,2.1Z"/></g></svg>