<svg xmlns="http://www.w3.org/2000/svg" width="17.001" height="16" viewBox="0 0 17.001 16"><defs><style>.a{fill:#31363d;}</style></defs><path class="a" d="M527.571,674.376a1,1,0,0,0-1.058.12l-4.726,3.781h-3.649a1,1,0,0,0-1,1v6a1,1,0,0,0,1,1h3.649l4.726,3.782a1,1,0,0,0,1.625-.782v-14A1,1,0,0,0,527.571,674.376Zm-1.433,12.82-3.375-2.7a1,1,0,0,0-.625-.219h-3v-4h3a1.006,1.006,0,0,0,.625-.218l3.375-2.7Z" transform="translate(-517.138 -674.277)"/><path class="a" d="M530.971,678.03a1,1,0,0,0,0,1.414,4.008,4.008,0,0,1,0,5.657,1,1,0,1,0,1.414,1.414,6.007,6.007,0,0,0,0-8.485A1,1,0,0,0,530.971,678.03Z" transform="translate(-517.138 -674.277)"/></svg>