<svg xmlns="http://www.w3.org/2000/svg" width="23" height="16.001" viewBox="0 0 23 16.001"><defs><style>.a{fill:#31363d;}</style></defs><path class="a" d="M29.555,729.243a1,1,0,0,0-1.057.12l-4.727,3.782H20.122a1,1,0,0,0-1,1v6a1,1,0,0,0,1,1h3.649l4.727,3.781a1,1,0,0,0,1.624-.781v-14A1,1,0,0,0,29.555,729.243Zm-1.433,12.82-3.375-2.7a1.006,1.006,0,0,0-.625-.218h-3v-4h3a1.007,1.007,0,0,0,.625-.219l3.375-2.7Z" transform="translate(-19.122 -729.144)"/><path class="a" d="M41.829,733.438a1,1,0,0,0-1.414,0l-2.293,2.292-2.293-2.292a1,1,0,0,0-1.414,1.414l2.293,2.293-2.293,2.293a1,1,0,1,0,1.414,1.414l2.293-2.293,2.293,2.293a1,1,0,1,0,1.414-1.414l-2.293-2.293,2.293-2.293A1,1,0,0,0,41.829,733.438Z" transform="translate(-19.122 -729.144)"/></svg>