<svg xmlns="http://www.w3.org/2000/svg" width="21.992" height="16.14" viewBox="0 0 21.992 16.14"><defs><style>.a{fill:#31363d;}</style></defs><path class="a" d="M557.571,674.444a1,1,0,0,0-1.058.12l-4.726,3.782h-3.649a1,1,0,0,0-1,1v6a1,1,0,0,0,1,1h3.649l4.726,3.781a1,1,0,0,0,1.625-.781v-14A1,1,0,0,0,557.571,674.444Zm-1.433,12.821-3.375-2.7a1.006,1.006,0,0,0-.625-.218h-3v-4h3a1,1,0,0,0,.625-.219l3.375-2.7Z" transform="translate(-547.138 -674.276)"/><path class="a" d="M564.5,674.569a1,1,0,0,0,0,1.414,9.012,9.012,0,0,1,0,12.726,1,1,0,1,0,1.414,1.414,11.013,11.013,0,0,0,0-15.554A1,1,0,0,0,564.5,674.569Z" transform="translate(-547.138 -674.276)"/><path class="a" d="M560.971,678.1a1,1,0,0,0,0,1.414,4.006,4.006,0,0,1,0,5.656,1,1,0,1,0,1.414,1.414,6.006,6.006,0,0,0,0-8.484A1,1,0,0,0,560.971,678.1Z" transform="translate(-547.138 -674.276)"/></svg>