<svg xmlns="http://www.w3.org/2000/svg" width="23.843" height="20.1" viewBox="0 0 23.843 20.1"><defs><style>.a{fill:#ffad39;}.b{fill:#fff;}</style></defs><path class="a" d="M704.2,304.883l-9.234-14.906a2.764,2.764,0,0,0-.994-.93,2.84,2.84,0,0,0-2.655.005,2.779,2.779,0,0,0-.985.923l0,.006-9.233,14.9a2.557,2.557,0,0,0,.965,3.562,2.673,2.673,0,0,0,1.357.371h18.464a2.66,2.66,0,0,0,1.346-.365A2.565,2.565,0,0,0,704.2,304.883Z" transform="translate(-680.724 -288.721)"/><g transform="translate(11 6)"><g transform="translate(0 0)"><path class="b" d="M618.227,300.785a1,1,0,0,1-1-1v-4a1,1,0,0,1,2,0v4A1,1,0,0,1,618.227,300.785Z" transform="translate(-617.227 -294.785)"/></g><g transform="translate(0 8)"><path class="b" d="M618.236,304.785a1,1,0,1,1-.009-2h.009a1,1,0,0,1,0,2Z" transform="translate(-617.231 -302.785)"/></g></g></svg>