<svg xmlns="http://www.w3.org/2000/svg" width="22" height="18" viewBox="0 0 22 18"><defs><style>.a{fill:#24292f;}</style></defs><path class="a" d="M6.419,5.067l-3,3v11h18v-14h-15m0-2h15a2,2,0,0,1,2,2v14a2,2,0,0,1-2,2h-18a2,2,0,0,1-2-2v-11A2,2,0,0,1,2,6.652l3-3A2,2,0,0,1,6.419,3.067Z" transform="translate(-1.419 -3.067)"/><g transform="translate(-1.419 -3.067)"><circle class="a" cx="1.5" cy="1.5" r="1.5" transform="translate(4.919 6.567)"/></g><g transform="translate(-1.419 -3.067)"><circle class="a" cx="1.5" cy="1.5" r="1.5" transform="translate(8.919 6.567)"/></g><g transform="translate(-1.419 -3.067)"><circle class="a" cx="1.5" cy="1.5" r="1.5" transform="translate(12.919 6.567)"/></g><g transform="translate(-1.419 -3.067)"><circle class="a" cx="1.5" cy="1.5" r="1.5" transform="translate(16.919 6.567)"/></g><g transform="translate(-1.419 -3.067)"><circle class="a" cx="1.5" cy="1.5" r="1.5" transform="translate(4.919 10.567)"/></g><g transform="translate(-1.419 -3.067)"><circle class="a" cx="1.5" cy="1.5" r="1.5" transform="translate(8.919 10.567)"/></g><g transform="translate(-1.419 -3.067)"><circle class="a" cx="1.5" cy="1.5" r="1.5" transform="translate(12.919 10.567)"/></g><g transform="translate(-1.419 -3.067)"><circle class="a" cx="1.5" cy="1.5" r="1.5" transform="translate(16.919 10.567)"/></g><g transform="translate(-1.419 -3.067)"><circle class="a" cx="1.5" cy="1.5" r="1.5" transform="translate(4.919 14.567)"/></g><g transform="translate(-1.419 -3.067)"><circle class="a" cx="1.5" cy="1.5" r="1.5" transform="translate(8.919 14.567)"/></g><g transform="translate(-1.419 -3.067)"><circle class="a" cx="1.5" cy="1.5" r="1.5" transform="translate(12.919 14.567)"/></g><g transform="translate(-1.419 -3.067)"><circle class="a" cx="1.5" cy="1.5" r="1.5" transform="translate(16.919 14.567)"/></g></svg>