<svg xmlns="http://www.w3.org/2000/svg" width="20" height="20" viewBox="0 0 20 20"><defs><style>.a{fill:#31363d;}</style></defs><g transform="translate(0)"><path class="a" d="M398.147,743.756a9.023,9.023,0,1,0-1.414,1.414l3.682,3.682a1,1,0,0,0,1.414-1.414Zm-14.025-5.611a7,7,0,1,1,11.962,4.93c-.005.006-.013.007-.019.013s-.007.013-.012.019a7,7,0,0,1-11.931-4.962Z" transform="translate(-382.122 -729.145)"/><path class="a" d="M394.122,737.145h-2v-2a1,1,0,0,0-2,0v2h-2a1,1,0,1,0,0,2h2v2a1,1,0,0,0,2,0v-2h2a1,1,0,0,0,0-2Z" transform="translate(-382.122 -729.145)"/></g></svg>